<svg width="133" height="133" viewBox="0 0 133 133" fill="none" xmlns="http://www.w3.org/2000/svg">
    <path fill-rule="evenodd" clip-rule="evenodd" d="M2.20463 90.5878L1.33614 90.2156C0.847228 90.006 0.450565 89.6268 0.219291 89.1478C-0.011983 88.6687 -0.0622717 88.1222 0.0776971 87.6091L6.69187 63.3571C6.76913 63.0734 6.9024 62.808 7.08382 62.5766C7.26524 62.3452 7.49114 62.1525 7.74821 62.0098L27.1233 51.2456L29.601 47.5292C27.2702 45.9061 25.3661 43.7439 24.0509 41.2265C22.7356 38.7091 22.0482 35.9111 22.0472 33.0709V13.2284C22.0511 9.72118 23.446 6.35877 25.926 3.87883C28.4059 1.39888 31.7683 0.00392072 35.2755 0H44.0944C47.6016 0.00392072 50.964 1.39888 53.444 3.87883C55.9239 6.35877 57.3189 9.72118 57.3228 13.2284V33.0709C57.3217 35.9111 56.6343 38.7091 55.3191 41.2265C54.0038 43.7439 52.0998 45.9061 49.7689 47.5292L52.2467 51.2456L71.6217 62.0098C71.9738 62.2055 72.2655 62.4937 72.4655 62.8433L81.2161 78.157L86.5803 85.3091L90.18 83.2521C85.9843 76.8026 83.76 69.2698 83.7795 61.5757V57.3229C83.1948 57.3229 82.634 57.0906 82.2204 56.6772L75.6062 50.063C75.1928 49.6495 74.9606 49.0887 74.9606 48.504V33.0709C74.9606 32.4862 75.1928 31.9254 75.6062 31.5118L80.0164 27.1017C79.5899 26.2123 79.369 25.2383 79.37 24.252V19.8425H83.7795V24.252C83.7795 24.8367 84.0118 25.3975 84.4252 25.811C84.8387 26.2244 85.3995 26.4567 85.9842 26.4567C86.5689 26.4567 87.1297 26.2244 87.5432 25.811C87.9567 25.3975 88.1889 24.8367 88.1889 24.252V22.0473C88.189 21.4625 88.4213 20.9018 88.8347 20.4883C89.2482 20.0749 89.809 19.8426 90.3937 19.8425H116.85C117.435 19.8426 117.996 20.0749 118.409 20.4883C118.823 20.9018 119.055 21.4625 119.055 22.0473V24.252C119.055 24.8367 119.287 25.3975 119.701 25.811C120.114 26.2244 120.675 26.4567 121.26 26.4567C121.845 26.4567 122.405 26.2244 122.819 25.811C123.232 25.3975 123.465 24.8367 123.465 24.252V19.8425H127.874V24.252C127.875 25.2383 127.654 26.2123 127.228 27.1017L131.638 31.5118C132.051 31.9254 132.283 32.4862 132.283 33.0709V48.504C132.283 49.0887 132.051 49.6495 131.638 50.063L125.024 56.6772C124.61 57.0906 124.049 57.3229 123.465 57.3229H119.055C118.47 57.3229 117.91 57.0906 117.496 56.6772L110.882 50.063C110.468 49.6495 110.236 49.0887 110.236 48.504V33.0709C110.236 32.4862 110.468 31.9254 110.882 31.5118L115.292 27.1017C114.865 26.2123 114.645 25.2383 114.646 24.252H105.827V77.1654H112.441C113.026 77.1654 113.586 77.3977 114 77.8112C114.413 78.2246 114.646 78.7854 114.646 79.3701V88.189C114.646 88.7738 114.413 89.3346 114 89.7481L109.591 94.1576C109.177 94.571 108.616 94.8032 108.031 94.8032H105.827V132.284H101.417V95.2482L89.4119 103.252C89.0497 103.493 88.6242 103.622 88.1889 103.622H81.5748C81.0741 103.622 80.5884 103.452 80.1974 103.139L69.1993 94.3406L63.937 90.3938V130.079C63.9369 130.664 63.7046 131.224 63.2912 131.638C62.8777 132.051 62.317 132.284 61.7322 132.284H17.6377C17.053 132.284 16.4922 132.051 16.0788 131.638C15.6653 131.224 15.433 130.664 15.433 130.079V117.394L12.75 116.798C12.4441 116.73 12.1562 116.598 11.9055 116.41L3.08657 109.795C2.81275 109.59 2.59049 109.324 2.43741 109.018C2.28434 108.711 2.20464 108.374 2.20463 108.032V90.5878ZM119.968 52.9134H122.551L127.874 47.5908V44.0945H125.93C123.966 44.0922 122.031 43.6352 120.274 42.7594C119.13 42.1889 117.869 41.8913 116.59 41.8898H114.646V47.5908L119.968 52.9134ZM127.874 33.9841L124.11 30.2198C123.22 30.6453 122.246 30.8662 121.26 30.8662C120.274 30.8662 119.3 30.6453 118.41 30.2198L114.646 33.9841V37.4803H116.59C118.553 37.4827 120.489 37.9397 122.246 38.8155C123.39 39.386 124.651 39.6836 125.93 39.6851H127.874V33.9841ZM6.61408 92.4776V106.929L14.1708 112.597L33.3127 116.85H46.2991V111.149L43.1813 108.032H38.0007L34.0569 110.004C33.7703 110.147 33.4559 110.226 33.1356 110.235C32.8153 110.245 32.4968 110.184 32.2023 110.058L16.7692 103.444C16.3726 103.274 16.0346 102.991 15.7971 102.631C15.5596 102.271 15.433 101.849 15.433 101.417V96.2571L6.61408 92.4776ZM30.8661 120.824L19.8424 118.374V127.874H30.8661V120.824ZM85.9842 30.8662C84.998 30.8662 84.0242 30.6453 83.1345 30.2198L79.37 33.9841V37.4803H81.3145C83.2776 37.4827 85.2134 37.9397 86.9703 38.8155C88.1145 39.386 89.3754 39.6836 90.6539 39.6851H92.5984V33.9841L88.834 30.2198C87.9442 30.6453 86.9705 30.8662 85.9842 30.8662ZM79.37 41.8898V47.5908L84.6927 52.9134H87.2758L92.5984 47.5908V44.0945H90.6539C88.6908 44.0922 86.755 43.6352 84.9981 42.7594C83.8539 42.1889 82.5931 41.8913 81.3145 41.8898H79.37ZM88.1889 57.3229V61.5757C88.1709 68.5025 90.198 75.2805 94.016 81.0602L100.324 77.4558C100.657 77.2655 101.034 77.1654 101.417 77.1654V24.252H92.5984C92.5995 25.2383 92.3786 26.2123 91.9521 27.1017L96.3622 31.5118C96.7756 31.9254 97.0078 32.4862 97.0079 33.0709V48.504C97.0078 49.0887 96.7756 49.6495 96.3622 50.063L89.748 56.6772C89.3345 57.0906 88.7737 57.3229 88.1889 57.3229ZM92.8026 86.8322L87.078 90.1034C86.6114 90.3698 86.0635 90.4567 85.5373 90.3478C85.0111 90.2389 84.5428 89.9416 84.2203 89.5118L79.4759 83.1859L73.5068 92.1395L82.3483 99.2127H87.5215L100.194 90.7641C100.557 90.5227 100.982 90.3938 101.417 90.3938H107.118L110.236 87.2759V81.5749H102.003L96.6947 84.6081C97.2896 85.3028 97.9137 85.9767 98.5669 86.63L95.4488 89.7481C94.5137 88.812 93.6316 87.84 92.8026 86.8322ZM70.0094 89.4365L76.7796 79.2811L68.9423 65.5653L51.0918 55.6483L35.2755 71.4644V104.464L36.4941 103.855C36.8003 103.702 37.1379 103.622 37.4802 103.622H44.0944C44.6792 103.622 45.24 103.854 45.6535 104.268L50.063 108.677C50.4763 109.091 50.7086 109.652 50.7086 110.236V119.055C50.7086 119.64 50.4763 120.201 50.0628 120.614C49.6494 121.028 49.0886 121.26 48.5039 121.26H35.2755V127.874H59.5275V77.1654H63.937V84.882L70.0094 89.4365ZM29.0426 6.9954C27.3893 8.64869 26.4593 10.8903 26.4566 13.2284V15.164C28.0559 14.7655 29.5166 13.9391 30.6818 12.7734C31.8471 11.6078 32.6729 10.1468 33.0708 8.54735L33.137 8.28306C33.2565 7.80634 33.5318 7.3832 33.9192 7.08084C34.3067 6.77848 34.7841 6.61423 35.2755 6.61418H35.2761C35.7676 6.61429 36.2451 6.7787 36.6325 7.08128C37.0199 7.38386 37.2951 7.80724 37.4143 8.28414C37.9226 10.3273 39.1005 12.1413 40.76 13.437C42.4195 14.7327 44.465 15.4355 46.5704 15.4331H52.9133V13.2284C52.9107 10.8903 51.9807 8.64869 50.3274 6.9954C48.6741 5.34212 46.4325 4.41213 44.0944 4.40945H35.2755C32.9374 4.41213 30.6959 5.34212 29.0426 6.9954ZM26.4566 19.6574V33.0709C26.4566 36.5793 27.8503 39.944 30.3311 42.4248C32.8119 44.9055 36.1766 46.2992 39.685 46.2992C43.1933 46.2992 46.558 44.9055 49.0388 42.4248C51.5196 39.944 52.9133 36.5793 52.9133 33.0709V19.8425H46.5704C44.3721 19.8451 42.2049 19.3235 40.2485 18.321C38.2922 17.3185 36.603 15.8639 35.3213 14.078C34.291 15.5527 32.9758 16.8061 31.4533 17.7644C29.9308 18.7226 28.2319 19.3663 26.4566 19.6574ZM45.8471 49.5957C43.8764 50.3331 41.7891 50.7101 39.685 50.7087C37.5808 50.7101 35.4936 50.3331 33.5229 49.5957L31.4984 52.6323L39.685 60.8189L47.8716 52.6323L45.8471 49.5957ZM28.2781 55.6483L10.7014 65.4132L4.83647 86.9182L15.433 91.4595V77.1654H19.8424V99.9635L30.8661 104.688V70.5512C30.8661 69.9665 31.0983 69.4057 31.5117 68.9921L36.5668 63.9371L28.2781 55.6483ZM35.2755 26.4567C35.2755 27.6743 34.2884 28.6614 33.0708 28.6614C31.8532 28.6614 30.8661 27.6743 30.8661 26.4567C30.8661 25.2391 31.8532 24.252 33.0708 24.252C34.2884 24.252 35.2755 25.2391 35.2755 26.4567ZM48.5039 26.4567C48.5039 27.6743 47.5168 28.6614 46.2991 28.6614C45.0815 28.6614 44.0944 27.6743 44.0944 26.4567C44.0944 25.2391 45.0815 24.252 46.2991 24.252C47.5168 24.252 48.5039 25.2391 48.5039 26.4567ZM35.2755 39.6851H37.4802C39.2338 39.6831 40.915 38.9856 42.155 37.7456C43.3949 36.5056 44.0924 34.8245 44.0944 33.0709V30.8662H39.685V33.0709C39.6843 33.6554 39.4518 34.2158 39.0385 34.6291C38.6252 35.0424 38.0648 35.2749 37.4802 35.2756H35.2755V39.6851Z" fill="#D7C7AB"/>
</svg>
