<svg width="104" height="133" viewBox="0 0 104 133" fill="none" xmlns="http://www.w3.org/2000/svg">
    <path opacity="0.5" fill-rule="evenodd" clip-rule="evenodd" d="M8.81886 59.3825V72.9778C6.32925 73.4862 4.09169 74.839 2.48471 76.8073C0.877735 78.7756 0 81.2386 0 83.7796C0 86.3206 0.877735 88.7836 2.48471 90.7519C4.09169 92.7202 6.32925 94.073 8.81886 94.5814V101.417C8.82315 104.542 9.93187 107.565 11.9491 109.951C13.9663 112.338 16.7621 113.934 19.8425 114.459V114.646C19.8458 117.568 21.0083 120.37 23.0749 122.437C25.1415 124.504 27.9435 125.666 30.8661 125.669H31.4818L33.184 130.776C33.3304 131.215 33.6111 131.597 33.9865 131.867C34.3619 132.138 34.8129 132.284 35.2756 132.284H41.8898C42.3525 132.284 42.8035 132.138 43.1788 131.867C43.5542 131.597 43.835 131.215 43.9813 130.776L45.6836 125.669H75.5763L77.2785 130.776C77.4249 131.215 77.7056 131.597 78.081 131.867C78.4564 132.138 78.9074 132.284 79.3701 132.284H85.9843C86.447 132.284 86.898 132.138 87.2734 131.867C87.6487 131.597 87.9295 131.215 88.0758 130.776L89.7781 125.669H92.5984C95.5211 125.666 98.3231 124.504 100.39 122.437C102.456 120.37 103.619 117.568 103.622 114.646V105.827C103.622 105.242 103.39 104.681 102.976 104.268C102.563 103.854 102.002 103.622 101.417 103.622H51.622L43.7673 95.7674L51.1614 92.5985H72.7559C73.0982 92.5985 73.4358 92.5188 73.7419 92.3657C74.048 92.2126 74.3143 91.9904 74.5197 91.7165L80.4724 83.7796H83.7795C84.3643 83.7796 84.925 83.5473 85.3385 83.1338C85.752 82.7204 85.9843 82.1596 85.9843 81.5749V72.756C85.9843 72.1712 85.752 71.6105 85.3385 71.197C84.925 70.7835 84.3643 70.5512 83.7795 70.5512H46.2992C45.7145 70.5512 45.1537 70.7835 44.7402 71.197C44.3268 71.6105 44.0945 72.1712 44.0945 72.756V79.3701H28.6614V59.9009C28.6674 56.8194 29.4779 53.7928 31.0126 51.1207C32.5474 48.4486 34.7533 46.2235 37.412 44.6656L45.1654 40.1427L46.2992 42.4103V57.3229C46.2992 57.6652 46.3789 58.0028 46.532 58.309L48.7367 62.7184C48.9198 63.0846 49.2013 63.3926 49.5496 63.6078C49.8979 63.8231 50.2992 63.9371 50.7087 63.9371H57.3228C57.7323 63.9371 58.1336 63.8231 58.4819 63.6078C58.8302 63.3926 59.1116 63.0846 59.2948 62.7184L61.4995 58.309C61.6526 58.0028 61.7323 57.6652 61.7323 57.3229V45.3861L62.7933 44.7912L67.2445 55.0417C67.3814 55.3569 67.5901 55.6358 67.8538 55.8561L71.6382 59.0154C71.9525 59.2778 72.3337 59.4475 72.739 59.5054C73.1443 59.5633 73.5577 59.5073 73.933 59.3435L79.995 56.6979C80.3703 56.5342 80.6926 56.2692 80.9257 55.9326C81.1588 55.596 81.2936 55.2011 81.315 54.7922L81.5719 49.869C81.5897 49.5272 81.5277 49.1859 81.3907 48.8721L76.3038 37.2165L76.7578 36.962L86.0952 46.2992C86.3372 46.5412 86.6323 46.7235 86.9569 46.8319L91.6338 48.3909C92.0222 48.5203 92.439 48.539 92.8374 48.445C93.2359 48.3509 93.6003 48.1478 93.8899 47.8583L98.5669 43.1814C98.8564 42.8918 99.0596 42.5274 99.1536 42.1289C99.2477 41.7305 99.2289 41.3137 99.0995 40.9252L97.5405 36.2483C97.4422 35.9532 97.2826 35.6822 97.0721 35.4532L85.5185 22.8859L81.2045 16.4149L81.2019 16.4166C80.9659 16.0602 80.6311 15.7804 80.2386 15.6112L64.9215 9.04679L49.5978 0.290393C49.2647 0.10011 48.8876 1.73012e-05 48.5039 0H22.0472C21.4625 5.84719e-06 20.9017 0.23229 20.4882 0.645755C20.0748 1.05922 19.8425 1.62 19.8425 2.20473V11.0236C19.8425 11.3976 19.9376 11.7654 20.1188 12.0924C20.3001 12.4195 20.5616 12.6951 20.8786 12.8933L37.1183 23.043L27.2933 28.3649C21.7033 31.3888 17.035 35.8681 13.7828 41.3285C10.5305 46.7888 8.81537 53.027 8.81886 59.3825ZM4.40941 83.7796C4.40941 82.4714 4.79733 81.1926 5.5241 80.1049C6.25088 79.0173 7.28387 78.1695 8.49245 77.6689C9.70103 77.1683 11.0309 77.0373 12.3139 77.2925C13.597 77.5477 14.7755 78.1777 15.7005 79.1027C16.6255 80.0277 17.2555 81.2062 17.5107 82.4892C17.7659 83.7723 17.6349 85.1021 17.1343 86.3107C16.6337 87.5193 15.7859 88.5523 14.6982 89.2791C13.6105 90.0058 12.3317 90.3938 11.0236 90.3938C9.27001 90.3918 7.58884 89.6943 6.34887 88.4543C5.10891 87.2143 4.41142 85.5332 4.40941 83.7796ZM40.3007 127.874H36.8647L36.1298 125.669H41.0355L40.3007 127.874ZM84.3952 127.874H80.9592L80.2243 125.669H85.1301L84.3952 127.874ZM99.2126 114.646C99.2106 116.399 98.5132 118.081 97.2732 119.32C96.0332 120.56 94.352 121.258 92.5984 121.26H30.8661C29.1125 121.258 27.4314 120.56 26.1914 119.32C24.9514 118.081 24.2539 116.399 24.2519 114.646V108.032H99.2126V114.646ZM71.6535 88.189H52.9134V83.7796H74.9606L71.6535 88.189ZM48.5039 74.9607H81.5748V79.3701H48.5039V74.9607ZM48.5039 83.7796V88.9399L34.823 94.8032H28.6614V83.7796H48.5039ZM81.1312 24.2539L75.6234 32.5429L59.1605 41.7727L49.9937 39.9394L48.9822 37.9163L78.6875 20.5884L81.1312 24.2539ZM89.4082 33.6322L84.5361 38.5043L79.9822 33.9504L84.0596 27.8142L89.4082 33.6322ZM50.7087 44.5792L57.3228 45.902V50.7087H50.7087V44.5792ZM55.9602 59.5276H52.0713L50.7087 56.8024V55.1181H57.3228V56.8024L55.9602 59.5276ZM76.9825 53.2017L73.4181 54.7572L71.0808 52.806L70.4091 51.2592L76.4675 48.6151L77.1413 50.1589L76.9825 53.2017ZM74.7037 44.5738L68.6528 47.2146L66.6593 42.6237L72.4385 39.3836L74.7037 44.5738ZM91.7355 43.7767L88.8451 42.8132L87.6542 41.6222L92.3951 36.8813L93.5065 38.0902L94.4855 41.0267L91.7355 43.7767ZM47.9184 4.40945L59.4031 10.9722L41.8898 20.4585V4.40945H47.9184ZM24.2519 4.40945H37.4803V18.0694L24.2519 9.80177V4.40945ZM64.0491 13.4703L74.4773 17.9395L35.1903 40.8569C31.8668 42.8042 29.1095 45.5855 27.191 48.9257C25.2725 52.2658 24.2594 56.049 24.2519 59.9009V97.0079C24.2519 97.5927 24.4842 98.1535 24.8977 98.5669C25.3112 98.9804 25.8719 99.2127 26.4567 99.2127H40.9764L45.3859 103.622H22.0472C21.4625 103.622 20.9017 103.854 20.4882 104.268C20.0748 104.681 19.8425 105.242 19.8425 105.827V109.957C17.9506 109.466 16.2751 108.361 15.0783 106.816C13.8814 105.271 13.2308 103.372 13.2283 101.417V94.5814C15.7179 94.073 17.9555 92.7202 19.5625 90.7519C21.1694 88.7836 22.0472 86.3206 22.0472 83.7796C22.0472 81.2386 21.1694 78.7756 19.5625 76.8073C17.9555 74.839 15.7179 73.4862 13.2283 72.9778V59.3825C13.2253 53.8215 14.7261 48.3631 17.5718 43.5852C20.4175 38.8074 24.5022 34.888 29.3934 32.242L64.0491 13.4703ZM35.2756 112.441H28.6614V116.85H35.2756V112.441ZM13.2283 83.7796C13.2283 84.9972 12.2412 85.9843 11.0236 85.9843C9.80595 85.9843 8.81886 84.9972 8.81886 83.7796C8.81886 82.562 9.80595 81.5749 11.0236 81.5749C12.2412 81.5749 13.2283 82.562 13.2283 83.7796Z" fill="#D7C7AB"/>
</svg>
