<svg width="216" height="265" viewBox="0 0 216 265" fill="none" xmlns="http://www.w3.org/2000/svg">
    <path opacity="0.15" fill-rule="evenodd" clip-rule="evenodd" d="M209.392 258.525C205.174 262.665 199.455 264.993 193.49 265H22.4989C16.5339 264.993 10.8151 262.665 6.5972 258.525C2.3793 254.385 0.00673055 248.771 0 242.917V35.3333C0.00673055 29.4785 2.3793 23.8654 6.5972 19.7254C10.8151 15.5854 16.5339 13.2566 22.4989 13.25H77.3837L89.0109 5.6416C94.6327 1.96299 101.238 0 107.995 0C114.751 0 121.357 1.96299 126.978 5.6416L138.606 13.25H193.49C199.455 13.2566 205.174 15.5854 209.392 19.7254C213.61 23.8654 215.983 29.4785 215.989 35.3333V242.917C215.983 248.771 213.61 254.385 209.392 258.525ZM107.995 8.83333C103.015 8.83333 98.1464 10.2801 94.0029 12.9912L62.9969 33.2803V44.1667H152.992V33.2803L121.986 12.9912C117.843 10.2801 112.974 8.83333 107.995 8.83333ZM56.0011 27.2419L63.8844 22.0833H31.4984C30.3054 22.0847 29.1617 22.5504 28.3181 23.3784C27.4745 24.2064 27 25.329 26.9987 26.5V234.083C27 235.254 27.4745 236.377 28.3181 237.205C29.1617 238.033 30.3054 238.499 31.4984 238.5H184.491C185.684 238.499 186.828 238.033 187.671 237.205C188.515 236.377 188.989 235.254 188.991 234.083V26.5C188.989 25.329 188.515 24.2064 187.671 23.3784C186.828 22.5504 185.684 22.0847 184.491 22.0833H152.105L159.988 27.2419C160.605 27.6452 161.11 28.1916 161.459 28.8326C161.809 29.4737 161.992 30.1896 161.992 30.9167V48.5833C161.992 49.1633 161.876 49.7377 161.649 50.2735C161.423 50.8094 161.092 51.2963 160.674 51.7064C160.256 52.1166 159.76 52.4419 159.214 52.6638C158.668 52.8858 158.083 53 157.492 53H58.4971C57.9062 53 57.321 52.8858 56.7751 52.6638C56.2291 52.4419 55.7331 52.1166 55.3152 51.7064C54.8974 51.2963 54.5659 50.8094 54.3398 50.2735C54.1137 49.7377 53.9973 49.1633 53.9973 48.5833V30.9167C53.9973 30.1896 54.1802 29.4737 54.5298 28.8327C54.8793 28.1916 55.3847 27.6452 56.0011 27.2419ZM11.661 27.4438C9.93627 29.7262 9.00336 32.4916 8.99955 35.3333V242.917C9.00365 246.43 10.4272 249.797 12.9579 252.281C15.4887 254.765 18.9199 256.163 22.4989 256.167H193.49C197.069 256.163 200.501 254.765 203.031 252.281C205.562 249.797 206.986 246.43 206.99 242.917V35.3333C206.986 32.4916 206.053 29.7262 204.328 27.4438C202.603 25.1614 200.178 23.4826 197.408 22.6544C197.795 23.9011 197.991 25.197 197.99 26.5V234.083C197.986 237.596 196.563 240.964 194.032 243.448C191.501 245.932 188.07 247.329 184.491 247.333H31.4984C27.9194 247.329 24.4881 245.932 21.9574 243.448C19.4266 240.964 18.0031 237.596 17.9991 234.083V26.5C17.9986 25.197 18.1947 23.9011 18.5809 22.6544C15.8114 23.4826 13.3858 25.1614 11.661 27.4438ZM112.495 22.0837C112.495 24.5229 110.48 26.5003 107.995 26.5003C105.51 26.5003 103.495 24.5229 103.495 22.0837C103.495 19.6444 105.51 17.667 107.995 17.667C110.48 17.667 112.495 19.6444 112.495 22.0837ZM58.4973 128.084H67.4968V106.001C67.4968 105.238 67.2955 104.489 66.9127 103.825C66.5299 103.161 65.9785 102.606 65.3123 102.214L42.8134 88.9639L38.1829 96.5383L58.4973 108.502V128.084ZM66.1787 91.4562C65.3349 92.2845 64.1905 92.7499 62.9971 92.75C62.1086 92.7502 61.24 92.4921 60.5009 92.0081L47.0015 83.1748L51.9935 75.8252L58.4971 80.0807V66.25H67.4966V88.3333C67.4966 89.5046 67.0225 90.628 66.1787 91.4562ZM80.9959 119.25H89.6788C92.994 119.25 96.247 118.367 99.0909 116.695C101.935 115.023 104.263 112.624 105.827 109.755C107.392 106.887 108.133 103.655 107.973 100.405C107.813 97.1544 106.757 94.0079 104.918 91.3005C102.456 87.6672 99.1168 84.6883 95.1972 82.6293C91.2776 80.5703 86.8999 79.4953 82.4543 79.5H80.9959V66.25H71.9964V83.9167C71.9964 84.4967 72.1127 85.071 72.3389 85.6069C72.565 86.1427 72.8965 86.6296 73.3143 87.0398C73.7321 87.4499 74.2282 87.7752 74.7741 87.9972C75.3201 88.2191 75.9052 88.3334 76.4962 88.3333H82.4543C85.4181 88.3302 88.3366 89.0469 90.9496 90.4196C93.5627 91.7923 95.7891 93.7783 97.4304 96.2005C98.3657 97.5776 98.9028 99.1781 98.9842 100.831C99.0656 102.484 98.6884 104.128 97.8927 105.587C97.097 107.047 95.9128 108.267 94.4662 109.117C93.0196 109.968 91.365 110.417 89.6788 110.417H80.9959V101.583H71.9964V128.083H80.9959V119.25ZM125.994 79.5H134.993V88.3333H125.994V79.5ZM170.992 79.5H143.993V88.3333H170.992V79.5ZM116.994 97.167H143.993V106H116.994V97.167ZM170.991 97.167H152.992V106H170.991V97.167ZM116.994 114.833H130.494V123.666H116.994V114.833ZM170.991 114.833H139.493V123.666H170.991V114.833ZM125.994 150.167H134.993V159H125.994V150.167ZM170.992 150.167H143.993V159H170.992V150.167ZM116.994 176.666V167.833H143.993V176.666H116.994ZM170.991 167.833H152.992V176.666H170.991V167.833ZM116.994 185.5H130.494V194.333H116.994V185.5ZM170.991 185.5H139.493V194.333H170.991V185.5ZM76.4965 216.417H89.9958V225.25H76.4965V216.417ZM98.995 216.417V225.25H170.991V216.417H98.995ZM57.803 191.562C53.303 189.733 49.2143 187.051 45.7702 183.671L37.3166 175.373C36.8987 174.963 36.5672 174.476 36.3411 173.941C36.1149 173.405 35.9985 172.83 35.9985 172.25C35.9985 171.67 36.1149 171.096 36.3411 170.56C36.5672 170.024 36.8987 169.537 37.3166 169.127L45.7702 160.83C49.2143 157.449 53.303 154.768 57.803 152.938C62.303 151.109 67.126 150.167 71.9968 150.167C76.8675 150.167 81.6906 151.109 86.1906 152.938C90.6905 154.768 94.7793 157.449 98.2234 160.83L106.677 169.127C107.095 169.537 107.426 170.024 107.652 170.56C107.879 171.096 107.995 171.67 107.995 172.25C107.995 172.83 107.879 173.405 107.652 173.941C107.426 174.476 107.095 174.963 106.677 175.373L98.2234 183.671C94.7793 187.051 90.6905 189.733 86.1906 191.562C81.6906 193.392 76.8675 194.334 71.9968 194.334C67.126 194.334 62.303 193.392 57.803 191.562ZM76.9967 164.906C75.5167 163.935 73.7767 163.417 71.9968 163.417C69.6108 163.42 67.3233 164.351 65.6362 166.007C63.949 167.663 63 169.908 62.9972 172.25C62.9972 173.997 63.525 175.705 64.5139 177.158C65.5028 178.611 66.9083 179.743 68.5528 180.411C70.1973 181.08 72.0068 181.255 73.7525 180.914C75.4983 180.573 77.1018 179.732 78.3604 178.496C79.619 177.261 80.4762 175.687 80.8234 173.974C81.1707 172.26 80.9924 170.484 80.3113 168.87C79.6301 167.256 78.4766 165.876 76.9967 164.906ZM91.8599 177.425L97.1314 172.25L91.8599 167.076C90.6062 165.846 89.2379 164.735 87.7729 163.755C89.2312 166.358 89.9959 169.28 89.9959 172.25C89.9959 175.221 89.2312 178.143 87.7729 180.745C89.2379 179.766 90.6062 178.654 91.8599 177.425ZM56.2206 163.755C54.7556 164.735 53.3873 165.846 52.1337 167.076L46.8622 172.25L52.1337 177.425C53.3874 178.654 54.7556 179.766 56.2206 180.745C54.7623 178.143 53.9977 175.221 53.9977 172.25C53.9977 169.28 54.7623 166.358 56.2206 163.755Z" fill="#646363"/>
</svg>
