<svg width="28" height="27" viewBox="0 0 28 27" fill="none" xmlns="http://www.w3.org/2000/svg">
    <path d="M14.4834 2.475C18.0834 2.475 18.5334 2.475 19.9959 2.5875C23.7084 2.7 25.3959 4.5 25.5084 8.1C25.6209 9.5625 25.6209 9.9 25.6209 13.5C25.6209 17.1 25.6209 17.55 25.5084 18.9C25.3959 22.5 23.5959 24.3 19.9959 24.4125C18.5334 24.525 18.1959 24.525 14.4834 24.525C10.8834 24.525 10.4334 24.525 9.0834 24.4125C5.3709 24.3 3.6834 22.5 3.5709 18.9C3.4584 17.4375 3.4584 17.1 3.4584 13.5C3.4584 9.9 3.4584 9.45 3.5709 8.1C3.6834 4.5 5.4834 2.7 9.0834 2.5875C10.4334 2.475 10.8834 2.475 14.4834 2.475ZM14.4834 0C10.7709 0 10.3209 0 8.9709 0.1125C4.0209 0.3375 1.3209 3.0375 1.0959 7.9875C0.983398 9.3375 0.983398 9.7875 0.983398 13.5C0.983398 17.2125 0.983398 17.6625 1.0959 19.0125C1.3209 23.9625 4.0209 26.6625 8.9709 26.8875C10.3209 27 10.7709 27 14.4834 27C18.1959 27 18.6459 27 19.9959 26.8875C24.9459 26.6625 27.6459 23.9625 27.8709 19.0125C27.9834 17.6625 27.9834 17.2125 27.9834 13.5C27.9834 9.7875 27.9834 9.3375 27.8709 7.9875C27.6459 3.0375 24.9459 0.3375 19.9959 0.1125C18.6459 0 18.1959 0 14.4834 0ZM14.4834 6.525C10.6584 6.525 7.5084 9.675 7.5084 13.5C7.5084 17.325 10.6584 20.475 14.4834 20.475C18.3084 20.475 21.4584 17.325 21.4584 13.5C21.4584 9.675 18.3084 6.525 14.4834 6.525ZM14.4834 18C12.0084 18 9.9834 15.975 9.9834 13.5C9.9834 11.025 12.0084 9 14.4834 9C16.9584 9 18.9834 11.025 18.9834 13.5C18.9834 15.975 16.9584 18 14.4834 18ZM21.6834 4.725C20.7834 4.725 20.1084 5.4 20.1084 6.3C20.1084 7.2 20.7834 7.875 21.6834 7.875C22.5834 7.875 23.2584 7.2 23.2584 6.3C23.2584 5.4 22.5834 4.725 21.6834 4.725Z" fill="white"/>
</svg>
