<svg width="110" height="37" viewBox="0 0 110 37" fill="none" xmlns="http://www.w3.org/2000/svg">
    <path d="M32.9638 6.17236H30.4016H27.2235H17.6891C16.137 6.17236 14.7573 7.13318 14.24 8.58673L8.32716 24.8223C7.78515 26.2758 6.43014 27.2367 4.87805 27.2367H7.44026H10.1503H20.1035C21.6556 27.2367 23.0352 26.2758 23.5526 24.8223L29.4654 8.58673C30.032 7.13318 31.4117 6.17236 32.9638 6.17236Z" fill="#CEA775"/>
    <path d="M13.1806 8.19281C13.8704 6.29584 15.6935 5.01471 17.7137 5.01471H19.2166L20.1035 2.60032C20.5469 1.41777 21.6556 0.629395 22.912 0.629395H20.8179H18.2311H10.4706C9.18946 0.629395 8.08081 1.41777 7.63733 2.60032L2.80858 15.8548C2.36512 17.0374 1.25647 17.8257 0 17.8257H2.09411H4.31141H9.65756L13.1806 8.19281Z" fill="#D7C7AB"/>
    <path d="M38.4672 13.4403H38.9353C39.2555 13.4403 39.5266 13.4896 39.7975 13.5635C40.0685 13.6374 40.2903 13.7852 40.4627 13.933C40.6598 14.1055 40.8077 14.3026 40.9062 14.549C41.0047 14.7953 41.054 15.0664 41.054 15.3866C41.054 15.7069 41.0047 15.9779 40.8816 16.2242C40.7584 16.4706 40.6105 16.6677 40.4135 16.8402C40.2164 17.0126 39.9946 17.1358 39.7483 17.2344C39.5019 17.3329 39.2309 17.3576 38.9353 17.3576H38.4672V18.0227H37.3093V17.3822H36.8412C36.5209 17.3822 36.2499 17.3329 35.9789 17.259C35.7079 17.1851 35.4862 17.0372 35.3137 16.8895C35.1166 16.717 34.9934 16.5199 34.8702 16.2735C34.7717 16.0272 34.7224 15.7561 34.7224 15.4359C34.7224 15.1156 34.7717 14.8446 34.8949 14.5983C35.0181 14.3519 35.1658 14.1548 35.363 13.9823C35.56 13.8099 35.7818 13.6867 36.0281 13.5881C36.2745 13.4896 36.5455 13.4649 36.8412 13.4649H37.3093V12.7751H38.4672V13.4403ZM36.8904 14.4504C36.5701 14.4504 36.3238 14.549 36.1513 14.7214C35.9789 14.8939 35.905 15.1403 35.905 15.4359C35.905 15.7315 36.0035 15.9779 36.176 16.1503C36.3484 16.3228 36.5948 16.3967 36.9151 16.3967H37.3339V14.475H36.8904V14.4504ZM38.886 16.3967C39.2063 16.3967 39.4527 16.2982 39.6251 16.1257C39.7976 15.9533 39.8715 15.7069 39.8715 15.4112C39.8715 15.1156 39.7729 14.8692 39.6004 14.6968C39.428 14.5243 39.1816 14.4504 38.8613 14.4504H38.4425V16.3967H38.886Z" fill="black"/>
    <path d="M45.8827 12.972C46.2277 13.1198 46.5233 13.2922 46.745 13.5386C46.9914 13.7849 47.1639 14.056 47.3116 14.4009C47.4348 14.7211 47.5087 15.0907 47.5087 15.4849C47.5087 15.8545 47.4348 16.1994 47.3116 16.5443C47.1885 16.8645 46.9914 17.1602 46.745 17.4065C46.4986 17.6529 46.203 17.85 45.8827 17.9979C45.5378 18.1457 45.1682 18.2195 44.7741 18.2195C44.3799 18.2195 44.0104 18.1457 43.6654 18.0225C43.3205 17.8746 43.0495 17.7022 42.8031 17.4558C42.5568 17.2095 42.3597 16.9384 42.2365 16.5935C42.1133 16.2733 42.0394 15.9037 42.0394 15.5342C42.0394 15.1646 42.1133 14.8197 42.2365 14.4748C42.3597 14.1545 42.5568 13.8589 42.8031 13.6125C43.0495 13.3661 43.3451 13.1691 43.6654 13.0459C44.0104 12.898 44.3799 12.8241 44.7741 12.8241C45.1682 12.7749 45.5378 12.8241 45.8827 12.972ZM44.0843 13.9328C43.8872 14.0314 43.7147 14.1299 43.5915 14.2777C43.4437 14.4255 43.3451 14.598 43.2712 14.7951C43.1973 14.9922 43.1727 15.2139 43.1727 15.4356C43.1727 15.6573 43.1973 15.8791 43.2712 16.1008C43.3451 16.2979 43.4437 16.4703 43.5915 16.6428C43.7393 16.7906 43.8872 16.9138 44.0843 16.9877C44.2813 17.0616 44.5031 17.1109 44.7494 17.1109C44.9958 17.1109 45.2175 17.0616 45.4146 16.9877C45.6117 16.8892 45.7842 16.7906 45.9074 16.6182C46.0552 16.4703 46.1537 16.2979 46.2277 16.0762C46.3016 15.8791 46.3262 15.6573 46.3262 15.4356C46.3262 15.1892 46.3016 14.9675 46.2277 14.7704C46.1537 14.5733 46.0552 14.4009 45.9074 14.253C45.7596 14.1053 45.6117 13.9821 45.4146 13.9082C45.2175 13.8342 44.9958 13.7849 44.7494 13.7849C44.5031 13.8096 44.2813 13.8342 44.0843 13.9328Z" fill="black"/>
    <path d="M49.8246 14.894H52.0912V12.8738H53.249V18.0475H52.0912V15.978H49.8246V18.0475H48.6666V12.8738H49.8246V14.894Z" fill="black"/>
    <path d="M59.4819 17.0127H60.221V17.333L60.1223 19.1561H59.0876L59.0383 18.0721H55.54L55.4663 19.1561H54.4066L54.3329 17.3577V17.0374H54.5547C54.6534 17.0374 54.7765 16.9881 54.8752 16.9142C54.9733 16.8403 55.072 16.7171 55.1458 16.5446C55.2938 16.2243 55.3925 15.8302 55.4418 15.3374C55.5156 14.8447 55.54 14.3027 55.54 13.7114V12.8738H59.4575V17.0127H59.4819ZM56.5503 15.7809C56.4516 16.2983 56.3529 16.7171 56.2054 17.0127H58.2997V13.9085H56.6983C56.6983 14.6476 56.649 15.2635 56.5503 15.7809Z" fill="black"/>
    <path d="M39.5264 27.3356H38.3686V23.2459H36.1759V27.3602H35.0179V22.1865H39.5511V27.3356H39.5264Z" fill="black"/>
    <path d="M44.1089 22.3092C44.3553 22.4077 44.577 22.5309 44.7741 22.6788C44.9465 22.8512 45.0943 23.0483 45.1929 23.27C45.2915 23.4918 45.3407 23.7627 45.3407 24.0338C45.3407 24.3294 45.2915 24.6004 45.1683 24.8468C45.0451 25.0931 44.8973 25.2903 44.7002 25.438C44.5031 25.6105 44.2814 25.7337 44.0103 25.8076C43.7393 25.8815 43.4684 25.9308 43.1481 25.9308H42.0887V27.335H40.9308V22.1614H43.2466C43.5915 22.1614 43.8625 22.2107 44.1089 22.3092ZM43.1727 24.8961C43.493 24.8961 43.7147 24.8222 43.9118 24.6743C44.0842 24.5265 44.1828 24.3048 44.1828 24.0584C44.1828 23.812 44.1089 23.5903 43.9365 23.4425C43.7886 23.2946 43.5423 23.2207 43.222 23.2207H42.1133V24.9207H43.1727V24.8961Z" fill="black"/>
    <path d="M50.3173 23.1961H47.5826V24.1816H50.0216V25.1917H47.5826V26.3003H50.4404V27.335H46.4247V22.1614H50.3173V23.1961Z" fill="black"/>
    <path d="M54.3331 24.0586C54.4318 23.96 54.4811 23.8615 54.4811 23.6891C54.4811 23.4919 54.4069 23.3441 54.2838 23.2456C54.1362 23.1471 53.9144 23.0978 53.6189 23.0978C53.126 23.0978 52.6824 23.2702 52.2637 23.5905L51.6478 22.8022C51.9434 22.5557 52.2388 22.3833 52.5837 22.2601C52.9291 22.1369 53.274 22.0876 53.6927 22.0876C54.0126 22.0876 54.2838 22.1123 54.5305 22.1862C54.7767 22.2601 54.9735 22.3587 55.146 22.4818C55.3184 22.605 55.4415 22.7529 55.5402 22.9499C55.6389 23.1224 55.6633 23.3195 55.6633 23.5412C55.6633 23.763 55.6145 23.96 55.5402 24.1325C55.4415 24.305 55.3184 24.4528 55.146 24.5514V24.6253C55.3927 24.6991 55.5896 24.847 55.7376 25.0441C55.8851 25.2411 55.9345 25.4875 55.9345 25.7832C55.9345 26.0295 55.8851 26.2513 55.7869 26.4484C55.6883 26.6454 55.5402 26.8426 55.3678 26.9903C55.1709 27.1382 54.9491 27.2614 54.6536 27.3353C54.3824 27.4338 54.0375 27.4584 53.6677 27.4584C53.4464 27.4584 53.2247 27.4338 53.0273 27.4092C52.8304 27.3845 52.633 27.3353 52.4606 27.286C52.2881 27.2121 52.1159 27.1382 51.9434 27.0396C51.771 26.9411 51.6231 26.8179 51.4507 26.6947L52.0666 25.8324C52.3375 26.0542 52.6086 26.202 52.8798 26.2759C53.1504 26.3745 53.4464 26.3991 53.7664 26.3991C54.1113 26.3991 54.358 26.3252 54.5305 26.202C54.7029 26.0788 54.7767 25.9064 54.7767 25.7092C54.7767 25.3397 54.5305 25.1672 54.062 25.1672H52.7561V24.1572H53.9389C54.0869 24.1818 54.2344 24.1325 54.3331 24.0586Z" fill="black"/>
    <path d="M58.2011 25.6105L60.7141 22.1614H61.7238V27.335H60.566V24.083L58.1762 27.335H57.0433V22.1614H58.1762V25.6105H58.2011Z" fill="black"/>
    <path d="M67.9323 26.3003H68.6715V26.6206L68.5728 28.4437H67.5381L67.4887 27.3597H63.9905L63.9167 28.4437H62.882L62.8077 26.6453V26.325H63.0295C63.1282 26.325 63.2513 26.2757 63.35 26.2018C63.4487 26.1279 63.5469 26.0047 63.6211 25.8322C63.7687 25.5119 63.8673 25.1178 63.9167 24.625C63.9905 24.1323 64.0154 23.5903 64.0154 22.999V22.1614H67.9323V26.3003ZM65.0251 25.0685C64.9265 25.5859 64.8283 26.0047 64.6802 26.3003H66.7745V23.1961H65.1732C65.1482 23.9352 65.0989 24.5511 65.0251 25.0685Z" fill="black"/>
    <path d="M73.6483 23.1961H70.9135V24.1816H73.3527V25.1917H70.9135V26.3003H73.7714V27.335H69.7802V22.1614H73.6483V23.1961Z" fill="black"/>
    <path d="M76.1859 24.1816H78.4521V22.1614H79.6099V27.335H78.4521V25.2656H76.1859V27.335H75.0276V22.1614H76.1859V24.1816Z" fill="black"/>
    <path d="M85.3998 23.2207H83.626V27.3597H82.4677V23.2207H80.6938V22.1614H85.3998V23.2207Z" fill="black"/>
    <path d="M89.7609 23.2463C89.5147 23.1724 89.268 23.1231 88.9724 23.1231C88.7262 23.1231 88.48 23.1724 88.2826 23.2463C88.0858 23.3202 87.9133 23.4433 87.7653 23.5912C87.6178 23.739 87.5191 23.9114 87.4204 24.1085C87.3467 24.3056 87.2973 24.5274 87.2973 24.7737C87.2973 25.0201 87.3467 25.2418 87.4204 25.4389C87.4942 25.636 87.6178 25.8085 87.7653 25.9563C87.9133 26.1041 88.0858 26.2027 88.2826 26.3012C88.48 26.3751 88.7013 26.4244 88.948 26.4244C89.2436 26.4244 89.5147 26.3751 89.7609 26.2766C90.0071 26.178 90.2538 26.0302 90.4507 25.8331L91.1161 26.6461C90.5245 27.2128 89.7853 27.4838 88.8987 27.4838C88.5044 27.4838 88.1351 27.4098 87.7902 27.2867C87.4453 27.1635 87.1742 26.991 86.9275 26.7447C86.6813 26.4983 86.5088 26.2273 86.3613 25.907C86.2377 25.5867 86.1639 25.2172 86.1639 24.7984C86.1639 24.4288 86.2377 24.0839 86.3613 23.739C86.4844 23.4187 86.6813 23.1231 86.9275 22.8767C87.1742 22.6304 87.4698 22.4332 87.8146 22.2854C88.1595 22.1376 88.5538 22.0637 88.9974 22.0637C89.3916 22.0637 89.7609 22.113 90.1058 22.2362C90.4507 22.3593 90.7463 22.5318 90.993 22.7782L90.352 23.6158C90.2045 23.4434 89.9827 23.3202 89.7609 23.2463Z" fill="black"/>
    <path d="M93.3333 24.133L93.8995 24.0591L95.3533 22.1375H96.7823L94.8604 24.5518L96.9791 27.3111H95.4764L93.8995 25.0938H93.3333V27.3111H92.2V22.1375H93.3333V24.133Z" fill="black"/>
    <path d="M99.1962 25.6105L101.709 22.1614H102.719V27.335H101.562V24.083L99.1718 27.335H98.0385V22.1614H99.1718V25.6105H99.1962Z" fill="black"/>
    <path d="M106.439 24.0091H106.513L107.548 22.1614H108.977L107.326 24.7236L109.149 27.3597H107.646L106.489 25.3642H106.414L105.282 27.3597H103.778L105.601 24.6743L103.951 22.186H105.405L106.439 24.0091Z" fill="black"/>
    <path d="M38.9352 32.5091H36.1759V36.6481H35.0179V31.4744H38.9352V32.5091Z" fill="black"/>
    <path d="M43.1233 31.598C43.3697 31.6966 43.5914 31.8197 43.7885 31.9676C43.961 32.14 44.1088 32.3371 44.2074 32.5589C44.3059 32.7805 44.3551 33.0516 44.3551 33.3226C44.3551 33.6182 44.3059 33.8892 44.1827 34.1109C44.0595 34.3573 43.9117 34.5544 43.7146 34.7022C43.5175 34.8747 43.2958 34.9978 43.0248 35.0718C42.7538 35.1457 42.4828 35.195 42.1625 35.195H41.1031V36.5992H39.9698V31.4255H42.2857C42.5813 31.4502 42.877 31.4995 43.1233 31.598ZM42.1871 34.1848C42.5074 34.1848 42.7292 34.1109 42.9262 33.9631C43.0987 33.8153 43.1973 33.5936 43.1973 33.3472C43.1973 33.1008 43.1233 32.8791 42.9509 32.7313C42.8031 32.5835 42.5567 32.5096 42.2364 32.5096H41.1278V34.2095H42.1871V34.1848Z" fill="black"/>
    <path d="M50.268 36.6475H48.9869L48.5927 35.6128H46.3754L45.9812 36.6475H44.7247L46.8435 31.4492H48.1246L50.268 36.6475ZM48.1985 34.578L47.5087 32.6071H47.4347L46.7449 34.578H48.1985Z" fill="black"/>
    <path d="M66.3301 18.0723H65.049L64.6548 17.0376H62.4375L62.0433 18.0723H60.7869L62.9056 12.874H64.1867L66.3301 18.0723ZM64.2606 16.0028L63.5708 14.0319H63.4969L62.807 16.0028H64.2606Z" fill="black"/>
    <path d="M52.4849 33.4694H54.7511V31.4492H55.9094V36.6229H54.7511V34.5287H52.4849V36.6229H51.3022V31.4492H52.46V33.4694H52.4849Z" fill="black"/>
    <path d="M61.6747 32.5086H59.9253V36.6475H58.7675V32.5086H56.9937V31.4492H61.6991V32.5086H61.6747Z" fill="black"/>
    <path d="M66.3309 31.5483C66.6757 31.6961 66.9713 31.8686 67.1931 32.1149C67.4393 32.3613 67.6117 32.6323 67.7598 32.9772C67.8829 33.2975 67.9571 33.667 67.9571 34.0612C67.9571 34.4307 67.8829 34.7757 67.7598 35.1206C67.6367 35.4409 67.4393 35.7365 67.1931 35.9829C66.9469 36.2292 66.6513 36.4263 66.3309 36.5741C65.986 36.7219 65.6166 36.7959 65.2224 36.7959C64.8282 36.7959 64.4584 36.7219 64.1135 36.5988C63.7686 36.451 63.4974 36.2785 63.2512 36.0321C63.005 35.7857 62.8076 35.5148 62.6845 35.1699C62.5614 34.8496 62.4877 34.48 62.4877 34.1105C62.4877 33.741 62.5614 33.396 62.6845 33.0511C62.8076 32.7308 63.005 32.4352 63.2512 32.1888C63.4974 31.9425 63.7935 31.7453 64.1135 31.6222C64.4584 31.4744 64.8282 31.4005 65.2224 31.4005C65.6166 31.3512 65.986 31.4251 66.3309 31.5483ZM64.5326 32.5091C64.3352 32.6076 64.1628 32.7062 64.0397 32.854C63.8917 33.0018 63.7935 33.1743 63.7192 33.3714C63.6455 33.5685 63.621 33.7902 63.621 34.0119C63.621 34.2337 63.6455 34.4554 63.7192 34.6771C63.7935 34.8742 63.8917 35.0467 64.0397 35.2191C64.1877 35.3669 64.3352 35.4901 64.5326 35.5641C64.7295 35.638 64.9513 35.6872 65.1975 35.6872C65.4442 35.6872 65.6655 35.638 65.8629 35.5641C66.0597 35.4655 66.2322 35.3669 66.3558 35.1945C66.5033 35.0467 66.602 34.8742 66.6757 34.6525C66.7495 34.4554 66.7744 34.2337 66.7744 34.0119C66.7744 33.7656 66.7495 33.5438 66.6757 33.3468C66.602 33.1496 66.5033 32.9772 66.3558 32.8048C66.2077 32.6569 66.0597 32.5337 65.8629 32.4598C65.6655 32.3859 65.4442 32.3367 65.1975 32.3367C64.9513 32.3859 64.7295 32.4352 64.5326 32.5091Z" fill="black"/>
    <path d="M72.7369 31.8443C73.0573 32.0907 73.2049 32.4356 73.2049 32.8791C73.2049 33.1007 73.1555 33.2979 73.0818 33.4703C72.9831 33.6428 72.86 33.766 72.7125 33.8399V33.9138C72.9587 33.9877 73.1555 34.1355 73.3285 34.3572C73.476 34.579 73.5498 34.8253 73.5498 35.0963C73.5498 35.318 73.5009 35.5152 73.4267 35.6876C73.3529 35.8847 73.2298 36.0326 73.0818 36.1803C72.9343 36.3282 72.7125 36.4267 72.4907 36.5253C72.2445 36.5992 71.9733 36.6484 71.6284 36.6484H69.1155V31.4748H71.4066C71.9733 31.4501 72.4413 31.5733 72.7369 31.8443ZM71.456 33.4949C71.6529 33.4949 71.8009 33.4457 71.924 33.3472C72.0471 33.2486 72.0964 33.1254 72.0964 32.953C72.0964 32.608 71.8746 32.4356 71.4311 32.4356H70.2733V33.4949H71.456ZM71.6284 35.6384C72.1458 35.6384 72.392 35.4412 72.392 35.0224C72.392 34.8253 72.3182 34.6775 72.1951 34.579C72.072 34.4804 71.8746 34.4311 71.6284 34.4311H70.2733V35.6384H71.6284Z" fill="black"/>
    <g opacity="0.5">
        <path d="M34.6969 0V4.96868H35.4422V0.674321H37.962V4.96868H38.7073V0H34.6969Z" fill="#201F37"/>
        <path d="M40.305 3.72651V2.80376C40.383 2.66179 40.4682 2.53403 40.5676 2.41336C40.6528 2.32108 40.7592 2.22881 40.887 2.14363C41.0148 2.06555 41.1638 2.02296 41.3342 2.02296C41.4691 2.02296 41.5968 2.05136 41.7175 2.10814C41.8382 2.16493 41.9375 2.24301 42.0298 2.34948C42.1221 2.45595 42.1931 2.59081 42.2498 2.73987C42.2995 2.89603 42.3279 3.07348 42.3279 3.26513C42.3279 3.45678 42.2995 3.63424 42.2498 3.7833C42.1931 3.93946 42.1221 4.06722 42.0298 4.17369C41.9375 4.28016 41.8382 4.36534 41.7175 4.42213C41.5968 4.47891 41.4691 4.5073 41.3342 4.5073C41.1638 4.5073 41.0148 4.46472 40.887 4.38664C40.7592 4.30856 40.6528 4.21628 40.5676 4.11691C40.4682 4.00334 40.383 3.87557 40.305 3.72651ZM43.0023 3.26513C43.0023 3.0025 42.9597 2.75407 42.8674 2.52693C42.7751 2.29979 42.6615 2.10104 42.5125 1.93779C42.3634 1.77453 42.1931 1.64676 42.0014 1.55449C41.8098 1.46221 41.611 1.41962 41.4052 1.41962C41.2277 1.41962 41.0716 1.44802 40.9438 1.5048C40.816 1.56868 40.7096 1.63257 40.6244 1.70355C40.525 1.78873 40.4398 1.881 40.3759 1.98747H40.305V1.56159H39.6306V6.38831H40.305V4.5428H40.3759C40.4398 4.64927 40.525 4.74154 40.6244 4.82672C40.7096 4.8977 40.816 4.96158 40.9438 5.02547C41.0716 5.08225 41.2277 5.11064 41.4052 5.11064C41.611 5.11064 41.8098 5.06806 42.0014 4.97578C42.1931 4.87641 42.3634 4.74864 42.5125 4.58538C42.6615 4.42213 42.7751 4.23048 42.8674 4.00334C42.9597 3.7762 43.0023 3.52776 43.0023 3.26513Z" fill="#201F37"/>
        <path d="M43.6441 1.56159V4.96868H44.3185L46.022 2.66179H46.093V4.96868H46.7673V1.56159H46.093L44.3894 3.86847H44.3185V1.56159H43.6441Z" fill="#201F37"/>
        <path d="M48.8915 1.56159V4.96868H49.5658V2.16493H51.2338V4.96868H51.9082V1.56159H48.8915Z" fill="#201F37"/>
        <path d="M54.3565 5.11064C54.6049 5.11064 54.8391 5.06096 55.0592 4.96868C55.2792 4.87641 55.4709 4.74154 55.6341 4.57119C55.7974 4.40793 55.9322 4.20918 56.0245 3.98204C56.1168 3.762 56.1665 3.52067 56.1665 3.26513C56.1665 3.0096 56.1168 2.76827 56.0245 2.54113C55.9322 2.32108 55.7974 2.12234 55.6341 1.95198C55.4709 1.78873 55.2792 1.65386 55.0592 1.56159C54.8391 1.46931 54.6049 1.41962 54.3565 1.41962C54.108 1.41962 53.8738 1.46931 53.6538 1.56159C53.4337 1.65386 53.2421 1.78873 53.0788 1.95198C52.9155 2.12234 52.7807 2.32108 52.6884 2.54113C52.5961 2.76827 52.5464 3.0096 52.5464 3.26513C52.5464 3.52067 52.5961 3.762 52.6884 3.98204C52.7807 4.20918 52.9155 4.40793 53.0788 4.57119C53.2421 4.74154 53.4337 4.87641 53.6538 4.96868C53.8738 5.06096 54.108 5.11064 54.3565 5.11064ZM54.3565 4.5073C54.2074 4.5073 54.0583 4.47181 53.9235 4.40793C53.7886 4.34405 53.6679 4.25887 53.5615 4.1524C53.455 4.04593 53.3769 3.91106 53.313 3.762C53.2492 3.61294 53.2208 3.44259 53.2208 3.26513C53.2208 3.08768 53.2492 2.92442 53.313 2.76827C53.3769 2.61921 53.455 2.48434 53.5615 2.37787C53.6679 2.2714 53.7886 2.17912 53.9235 2.11524C54.0583 2.05136 54.2074 2.02296 54.3565 2.02296C54.5055 2.02296 54.6546 2.05136 54.7894 2.11524C54.9243 2.17912 55.045 2.2714 55.1515 2.37787C55.2579 2.48434 55.336 2.61921 55.3999 2.76827C55.4638 2.92442 55.4922 3.08768 55.4922 3.26513C55.4922 3.44259 55.4638 3.61294 55.3999 3.762C55.336 3.91106 55.2579 4.04593 55.1515 4.1524C55.045 4.25887 54.9243 4.34405 54.7894 4.40793C54.6546 4.47181 54.5055 4.5073 54.3565 4.5073Z" fill="#201F37"/>
        <path d="M57.8739 2.16493H58.6192L59.0806 4.36534H57.4125L57.8739 2.16493ZM56.3123 4.36534V5.71398H56.9866V4.96868H59.5065V5.71398H60.1808V4.36534H59.7549L59.1516 1.56159H57.3416L56.7382 4.36534H56.3123Z" fill="#201F37"/>
        <path d="M61.7418 2.16493H62.4871L62.9485 4.36534H61.2805L61.7418 2.16493ZM60.1802 4.36534V5.71398H60.8546V4.96868H63.3744V5.71398H64.0487V4.36534H63.6228L63.0195 1.56159H61.2095L60.6061 4.36534H60.1802Z" fill="#201F37"/>
        <path d="M65.9308 2.02296C66.0657 2.02296 66.1864 2.04426 66.307 2.09394C66.4277 2.14363 66.5271 2.21461 66.6193 2.29979C66.7116 2.38497 66.7826 2.48434 66.8465 2.59081C66.9033 2.70438 66.9388 2.82505 66.9601 2.94572H64.9016C64.9229 2.82505 64.9584 2.70438 65.0223 2.59081C65.0791 2.48434 65.15 2.38497 65.2423 2.29979C65.3346 2.21461 65.434 2.14363 65.5546 2.09394C65.6753 2.04426 65.796 2.02296 65.9308 2.02296ZM65.9308 1.41962C65.6895 1.41962 65.4624 1.46221 65.2565 1.55449C65.0436 1.64676 64.859 1.77453 64.7029 1.93779C64.5467 2.10104 64.426 2.29979 64.3338 2.52693C64.2415 2.75407 64.1918 3.0025 64.1918 3.26513C64.1918 3.52776 64.2415 3.7762 64.3338 4.00334C64.426 4.23048 64.5467 4.42213 64.71 4.58538C64.8661 4.74864 65.0507 4.87641 65.2707 4.97578C65.4836 5.06806 65.7179 5.11064 65.9663 5.11064C66.2006 5.11064 66.4064 5.08225 66.591 5.01837C66.7755 4.94739 66.9388 4.86931 67.0807 4.76284C67.2156 4.65636 67.3363 4.5428 67.4285 4.40793C67.5208 4.27307 67.5918 4.1453 67.6344 4.01044L66.9601 3.90396C66.8891 4.06722 66.7755 4.20209 66.6264 4.32275C66.4703 4.44342 66.2502 4.5073 65.9663 4.5073C65.8244 4.5073 65.6895 4.47891 65.5688 4.42922C65.4482 4.37954 65.3417 4.31566 65.2494 4.22338C65.1571 4.1382 65.0791 4.03883 65.0223 3.91816C64.9584 3.80459 64.9229 3.68392 64.9016 3.54906H67.3859L67.6699 3.26513C67.6699 3.0096 67.6202 2.76827 67.5279 2.54113C67.4356 2.32108 67.3079 2.12234 67.1446 1.95198C66.9813 1.78873 66.7968 1.65386 66.591 1.56159C66.3851 1.46931 66.1651 1.41962 65.9308 1.41962Z" fill="#201F37"/>
        <path d="M68.947 3.72651V2.80376C69.0251 2.66179 69.1102 2.53403 69.2096 2.41336C69.2948 2.32108 69.4013 2.22881 69.529 2.14363C69.6568 2.06555 69.8058 2.02296 69.9762 2.02296C70.1111 2.02296 70.2388 2.05136 70.3595 2.10814C70.4802 2.16493 70.5795 2.24301 70.6718 2.34948C70.7641 2.45595 70.8351 2.59081 70.8919 2.73987C70.9415 2.89603 70.9699 3.07348 70.9699 3.26513C70.9699 3.45678 70.9415 3.63424 70.8919 3.7833C70.8351 3.93946 70.7641 4.06722 70.6718 4.17369C70.5795 4.28016 70.4802 4.36534 70.3595 4.42213C70.2388 4.47891 70.1111 4.5073 69.9762 4.5073C69.8058 4.5073 69.6568 4.46472 69.529 4.38664C69.4013 4.30856 69.2948 4.21628 69.2096 4.11691C69.1102 4.00334 69.0251 3.87557 68.947 3.72651ZM71.6443 3.26513C71.6443 3.0025 71.6017 2.75407 71.5094 2.52693C71.4171 2.29979 71.3036 2.10104 71.1545 1.93779C71.0054 1.77453 70.8351 1.64676 70.6434 1.55449C70.4518 1.46221 70.253 1.41962 70.0472 1.41962C69.8697 1.41962 69.7136 1.44802 69.5858 1.5048C69.458 1.56868 69.3516 1.63257 69.2664 1.70355C69.167 1.78873 69.0818 1.881 69.018 1.98747H68.947V1.56159H68.2727V6.38831H68.947V4.5428H69.018C69.0818 4.64927 69.167 4.74154 69.2664 4.82672C69.3516 4.8977 69.458 4.96158 69.5858 5.02547C69.7136 5.08225 69.8697 5.11064 70.0472 5.11064C70.253 5.11064 70.4518 5.06806 70.6434 4.97578C70.8351 4.87641 71.0054 4.74864 71.1545 4.58538C71.3036 4.42213 71.4171 4.23048 71.5094 4.00334C71.6017 3.7762 71.6443 3.52776 71.6443 3.26513Z" fill="#201F37"/>
        <path d="M72.7847 3.19415V3.26513C72.7066 3.27933 72.6356 3.30772 72.5717 3.35741C72.522 3.3929 72.4724 3.44968 72.4298 3.52067C72.3801 3.59165 72.3588 3.68392 72.3588 3.79749V4.11691C72.3588 4.32985 72.2523 4.43632 72.0394 4.43632H71.9329V5.03966H72.1104C72.4298 5.03966 72.664 4.97578 72.8131 4.84092C72.9621 4.70605 73.0331 4.5286 73.0331 4.29436V3.93946C73.0331 3.81879 73.0686 3.71941 73.1325 3.64843C73.1964 3.58455 73.2815 3.54906 73.388 3.54906H74.1333V4.96868H74.8076V3.54906H75.5529C75.6594 3.54906 75.7517 3.58455 75.8156 3.64843C75.8795 3.71941 75.9078 3.81879 75.9078 3.93946V4.29436C75.9078 4.5286 75.9788 4.70605 76.1279 4.84092C76.277 4.97578 76.5112 5.03966 76.8306 5.03966H77.0081V4.43632H76.9016C76.6886 4.43632 76.5822 4.32985 76.5822 4.11691V3.79749C76.5822 3.68392 76.5609 3.59165 76.5183 3.52067C76.4686 3.44968 76.4189 3.3929 76.3692 3.35741C76.3053 3.30772 76.2344 3.27933 76.1563 3.26513V3.19415C76.2202 3.17996 76.284 3.15156 76.3337 3.10898C76.3763 3.07349 76.4189 3.0167 76.4544 2.95282C76.4899 2.88893 76.5112 2.80376 76.5112 2.69728V2.41336C76.5112 2.20042 76.6177 2.09394 76.8306 2.09394H76.9371V1.4906H76.7596C76.4402 1.4906 76.206 1.55449 76.0569 1.68935C75.9078 1.82422 75.8369 2.00167 75.8369 2.23591V2.55532C75.8369 2.67599 75.8085 2.77536 75.7446 2.83925C75.6807 2.91023 75.5884 2.94572 75.482 2.94572H74.8076V1.56159H74.1333V2.94572H73.459C73.3525 2.94572 73.2673 2.91023 73.2035 2.83925C73.1396 2.77536 73.1041 2.67599 73.1041 2.55532V2.23591C73.1041 2.00167 73.0331 1.82422 72.884 1.68935C72.735 1.55449 72.5007 1.4906 72.1813 1.4906H72.0039V2.09394H72.1104C72.3233 2.09394 72.4298 2.20042 72.4298 2.41336V2.69728C72.4298 2.80376 72.4511 2.88893 72.4865 2.95282C72.522 3.0167 72.5575 3.07349 72.6072 3.10898C72.6569 3.15156 72.7208 3.17996 72.7847 3.19415Z" fill="#201F37"/>
        <path d="M79.811 3.26513V3.19415C79.8749 3.17996 79.9387 3.15156 79.9884 3.10898C80.031 3.07349 80.0736 3.0167 80.1091 2.95282C80.1446 2.88893 80.1659 2.80376 80.1659 2.69728V2.41336C80.1659 2.20042 80.2724 2.09394 80.4853 2.09394H80.5918V1.4906H80.4143C80.0949 1.4906 79.8607 1.55449 79.7116 1.68935C79.5625 1.82422 79.4916 2.00167 79.4916 2.23591V2.55532C79.4916 2.67599 79.4632 2.77536 79.3993 2.83925C79.3354 2.91023 79.2431 2.94572 79.1367 2.94572H78.2494V1.56159H77.5751V4.96868H78.2494V3.54906H79.2076C79.3141 3.54906 79.4064 3.58455 79.4703 3.64843C79.5342 3.71941 79.5625 3.81879 79.5625 3.93946V4.29436C79.5625 4.5286 79.6335 4.70605 79.7826 4.84092C79.9316 4.97578 80.1659 5.03966 80.4853 5.03966H80.6628V4.43632H80.5563C80.3433 4.43632 80.2369 4.32985 80.2369 4.11691V3.79749C80.2369 3.68392 80.2156 3.59165 80.173 3.52067C80.1233 3.44968 80.0736 3.3929 80.0239 3.35741C79.96 3.30772 79.8891 3.27933 79.811 3.26513Z" fill="#201F37"/>
        <path d="M82.6849 2.02296C82.8197 2.02296 82.9404 2.04426 83.0611 2.09394C83.1818 2.14363 83.2811 2.21461 83.3734 2.29979C83.4657 2.38497 83.5367 2.48434 83.6005 2.59081C83.6573 2.70438 83.6928 2.82505 83.7141 2.94572H81.6557C81.677 2.82505 81.7124 2.70438 81.7763 2.59081C81.8331 2.48434 81.9041 2.38497 81.9964 2.29979C82.0886 2.21461 82.188 2.14363 82.3087 2.09394C82.4294 2.04426 82.55 2.02296 82.6849 2.02296ZM82.6849 1.41962C82.4436 1.41962 82.2164 1.46221 82.0106 1.55449C81.7976 1.64676 81.6131 1.77453 81.4569 1.93779C81.3008 2.10104 81.1801 2.29979 81.0878 2.52693C80.9955 2.75407 80.9458 3.0025 80.9458 3.26513C80.9458 3.52776 80.9955 3.7762 81.0878 4.00334C81.1801 4.23048 81.3008 4.42213 81.464 4.58538C81.6202 4.74864 81.8047 4.87641 82.0248 4.97578C82.2377 5.06806 82.4719 5.11064 82.7204 5.11064C82.9546 5.11064 83.1605 5.08225 83.345 5.01837C83.5296 4.94739 83.6928 4.86931 83.8348 4.76284C83.9696 4.65636 84.0903 4.5428 84.1826 4.40793C84.2749 4.27307 84.3458 4.1453 84.3884 4.01044L83.7141 3.90396C83.6431 4.06722 83.5296 4.20209 83.3805 4.32275C83.2243 4.44342 83.0043 4.5073 82.7204 4.5073C82.5784 4.5073 82.4435 4.47891 82.3229 4.42922C82.2022 4.37954 82.0957 4.31566 82.0035 4.22338C81.9112 4.1382 81.8331 4.03883 81.7763 3.91816C81.7124 3.80459 81.677 3.68392 81.6557 3.54906H84.14L84.4239 3.26513C84.4239 3.0096 84.3742 2.76827 84.282 2.54113C84.1897 2.32108 84.0619 2.12234 83.8987 1.95198C83.7354 1.78873 83.5509 1.65386 83.345 1.56159C83.1392 1.46931 82.9191 1.41962 82.6849 1.41962Z" fill="#201F37"/>
    </g>
</svg>
