<svg width="157" height="29" viewBox="0 0 157 29" fill="none" xmlns="http://www.w3.org/2000/svg">
    <path d="M38.9594 28.4423V27.5659C36.1653 23.2637 33.3319 18.9615 30.5379 14.6593C32.1907 12.9863 32.9777 10.3173 33.8042 7.13049C34.4338 4.9794 35.8899 4.34203 37.9756 4.66072V0.637364C33.3713 -0.358517 29.6327 0.557692 28.6096 5.53709C28.1767 7.44918 27.5077 10.3571 25.6975 11.3929C24.753 11.9904 23.6905 12.0302 22.3918 12.0302V0.557692C20.4635 0.557692 18.5352 0.557692 16.5676 0.557692V12.0302C15.2296 12.0302 14.2458 11.9904 13.3013 11.3929C11.4517 10.3571 10.7827 7.44918 10.3892 5.53709C9.32664 0.557692 5.58811 -0.358517 0.983823 0.637364V4.66072C3.06953 4.34203 4.56494 4.9794 5.15523 7.13049C5.94229 10.3173 6.7687 12.9863 8.46088 14.6593C5.62747 18.9615 2.79406 23.2637 0 27.5659V28.4423H6.65064C8.97246 24.6181 11.2943 20.794 13.5768 17.0096C14.5999 17.2486 15.387 17.3681 16.5676 17.3681V28.4423C18.5352 28.4423 20.4635 28.4423 22.3918 28.4423V17.3681C23.6117 17.3681 24.3595 17.2486 25.3826 17.0096C27.6651 20.794 29.9869 24.6181 32.3087 28.4423H38.9594Z" fill="#03803E"/>
    <path d="M63.0166 12.5082V28.4423H68.8802V0.438188H67.0306L51.5649 16.3723V0.557692H45.662V28.522H47.4329L63.0166 12.5082Z" fill="#03803E"/>
    <path d="M82.2977 7.40934C82.2977 5.57692 84.1473 4.74038 85.9575 4.74038C87.8465 4.74038 89.578 5.8956 89.578 8.00687C89.578 9.79945 88.0432 11.2335 85.9182 11.2335H83.9112V16.0137H85.9575C88.7516 16.0137 90.6405 17.7665 90.6405 19.9973C90.6405 22.3475 88.8303 24.0604 85.9575 24.0604C83.3996 24.0604 81.3532 22.4272 81.3532 19.6387H76.0406C76.0406 26.0124 80.0939 29 85.9575 29C92.7262 29 96.5828 25.4547 96.5828 20.3558C96.5828 16.8901 94.93 14.6992 91.9392 13.3049C93.8281 12.1497 95.0874 10.158 95.0874 7.88736C95.0874 3.46566 91.6637 0 85.9575 0C81.1958 0 76.9064 2.27061 77.1031 7.40934H82.2977Z" fill="#03803E"/>
    <path d="M126.442 28.4423V0.557692H120.539V11.1937H109.992V0.557692H104.129V28.4423H109.992V16.6511H120.539V28.4423H126.442Z" fill="#03803E"/>
    <path d="M141.298 0.557692H135.553V28.4423H147.201C153.537 28.4423 157 23.7816 157 18.8022C157 13.8626 153.537 9.28159 147.201 9.28159H141.298V0.557692ZM147.201 14.5398C149.759 14.5398 151.294 16.4918 151.333 18.8022C151.373 21.1525 149.798 23.1841 147.201 23.1841C145.233 23.2637 143.226 23.1841 141.298 23.1841V14.5398H147.201Z" fill="#03803E"/>
</svg>
