<svg width="159" height="54" viewBox="0 0 159 54" fill="none" xmlns="http://www.w3.org/2000/svg">
    <path d="M48.5748 8.25049H44.7992H40.1161H26.0664C23.7793 8.25049 21.7463 9.66633 20.9839 11.8082L12.271 35.7324C11.4723 37.8744 9.47559 39.2903 7.18848 39.2903H10.9641H14.9575H29.6242C31.9114 39.2903 33.9444 37.8744 34.7067 35.7324L43.4197 11.8082C44.2547 9.66633 46.2877 8.25049 48.5748 8.25049Z" fill="#CEA775"/>
    <path d="M19.4225 11.2278C20.439 8.43243 23.1255 6.5446 26.1025 6.5446H28.317L29.6239 2.98683C30.2774 1.24425 31.911 0.0825195 33.7625 0.0825195H30.6767H26.8648H15.4291C13.5413 0.0825195 11.9077 1.24425 11.2542 2.98683L4.13864 22.5183C3.48517 24.2609 1.8515 25.4226 0 25.4226H3.08582H6.35317H14.2311L19.4225 11.2278Z" fill="#D7C7AB"/>
    <path d="M54.7828 18.9606H55.4726C55.9445 18.9606 56.3439 19.0333 56.7432 19.1422C57.1425 19.2511 57.4693 19.4689 57.7234 19.6867C58.0139 19.9408 58.2317 20.2313 58.3769 20.5943C58.5221 20.9573 58.5947 21.3567 58.5947 21.8287C58.5947 22.3006 58.5221 22.6999 58.3406 23.063C58.1591 23.426 57.9412 23.7165 57.6508 23.9706C57.3604 24.2247 57.0336 24.4062 56.6706 24.5514C56.3076 24.6966 55.9083 24.733 55.4726 24.733H54.7828V25.7132H53.0766V24.7693H52.3868C51.9148 24.7693 51.5155 24.6966 51.1162 24.5877C50.7168 24.4788 50.3901 24.261 50.1359 24.0432C49.8455 23.789 49.664 23.4986 49.4825 23.1356C49.3373 22.7726 49.2646 22.3732 49.2646 21.9012C49.2646 21.4293 49.3372 21.03 49.5188 20.667C49.7003 20.3039 49.9181 20.0135 50.2085 19.7593C50.4989 19.5052 50.8257 19.3237 51.1887 19.1785C51.5517 19.0333 51.9511 18.9969 52.3868 18.9969H53.0766V17.9805H54.7828V18.9606ZM52.4594 20.4491C51.9874 20.4491 51.6244 20.5943 51.3703 20.8484C51.1162 21.1025 51.0072 21.4656 51.0072 21.9012C51.0072 22.3369 51.1524 22.6999 51.4065 22.954C51.6607 23.2082 52.0238 23.3171 52.4957 23.3171H53.1129V20.4854H52.4594V20.4491ZM55.4 23.3171C55.872 23.3171 56.235 23.1719 56.4891 22.9178C56.7432 22.6637 56.8521 22.3006 56.8521 21.865C56.8521 21.4293 56.7069 21.0663 56.4528 20.8121C56.1986 20.558 55.8356 20.4491 55.3637 20.4491H54.7465V23.3171H55.4Z" fill="#646363"/>
    <path d="M65.7102 18.2704C66.2185 18.4883 66.6541 18.7424 66.9809 19.1054C67.3439 19.4684 67.5981 19.8678 67.8158 20.376C67.9974 20.848 68.1063 21.3926 68.1063 21.9734C68.1063 22.518 67.9974 23.0262 67.8158 23.5345C67.6344 24.0064 67.3439 24.4421 66.9809 24.8051C66.6178 25.1681 66.1822 25.4586 65.7102 25.6765C65.202 25.8943 64.6574 26.0031 64.0766 26.0031C63.4957 26.0031 62.9512 25.8943 62.4429 25.7127C61.9347 25.4949 61.5353 25.2408 61.1722 24.8778C60.8092 24.5147 60.5188 24.1153 60.3373 23.6071C60.1558 23.1352 60.0469 22.5906 60.0469 22.0461C60.0469 21.5015 60.1558 20.9933 60.3373 20.485C60.5188 20.013 60.8092 19.5774 61.1722 19.2143C61.5353 18.8513 61.9709 18.5609 62.4429 18.3793C62.9512 18.1615 63.4957 18.0526 64.0766 18.0526C64.6574 17.98 65.202 18.0526 65.7102 18.2704ZM63.0601 19.6863C62.7696 19.8315 62.5155 19.9767 62.334 20.1946C62.1162 20.4124 61.9709 20.6665 61.862 20.9569C61.7531 21.2474 61.7168 21.5741 61.7168 21.9008C61.7168 22.2276 61.7531 22.5543 61.862 22.8811C61.9709 23.1714 62.1162 23.4256 62.334 23.6797C62.5518 23.8975 62.7696 24.0791 63.0601 24.188C63.3505 24.2969 63.6772 24.3695 64.0403 24.3695C64.4033 24.3695 64.7301 24.2969 65.0204 24.188C65.3109 24.0428 65.565 23.8975 65.7466 23.6434C65.9644 23.4256 66.1096 23.1714 66.2185 22.8447C66.3274 22.5543 66.3637 22.2276 66.3637 21.9008C66.3637 21.5378 66.3274 21.211 66.2185 20.9206C66.1096 20.6302 65.9644 20.376 65.7466 20.1582C65.5288 19.9405 65.3109 19.7589 65.0204 19.65C64.7301 19.5411 64.4033 19.4684 64.0403 19.4684C63.6772 19.5048 63.3505 19.5411 63.0601 19.6863Z" fill="#646363"/>
    <path d="M71.5186 21.1029H74.8585V18.126H76.5647V25.7498H74.8585V22.7002H71.5186V25.7498H69.8123V18.126H71.5186V21.1029Z" fill="#646363"/>
    <path d="M85.7498 24.225H86.8389V24.6969L86.6935 27.3834H85.1688L85.0961 25.7861H79.9411L79.8325 27.3834H78.271L78.1624 24.7333V24.2614H78.4892C78.6346 24.2614 78.816 24.1887 78.9614 24.0798C79.1061 23.9709 79.2515 23.7894 79.3602 23.5352C79.5783 23.0633 79.7238 22.4824 79.7965 21.7564C79.9052 21.0303 79.9411 20.2316 79.9411 19.3603V18.126H85.7138V24.225H85.7498ZM81.4298 22.4098C81.2844 23.1722 81.139 23.7894 80.9216 24.225H84.0077V19.6507H81.648C81.648 20.7399 81.5753 21.6474 81.4298 22.4098Z" fill="#646363"/>
    <path d="M56.3438 39.4356H54.6376V33.4092H51.4065V39.4719H49.7002V31.8481H56.3802V39.4356H56.3438Z" fill="#646363"/>
    <path d="M63.096 32.0294C63.4591 32.1746 63.7858 32.3561 64.0762 32.5739C64.3303 32.8281 64.5481 33.1184 64.6933 33.4452C64.8386 33.7719 64.9112 34.1713 64.9112 34.5706C64.9112 35.0062 64.8386 35.4056 64.6571 35.7686C64.4756 36.1317 64.2578 36.4221 63.9673 36.6399C63.6769 36.8941 63.3501 37.0756 62.9508 37.1845C62.5514 37.2934 62.1521 37.366 61.6802 37.366H60.1191V39.4353H58.4128V31.8115H61.8254C62.3336 31.8115 62.733 31.8842 63.096 32.0294ZM61.7165 35.8413C62.1884 35.8413 62.5152 35.7324 62.8056 35.5145C63.0597 35.2967 63.2049 34.9699 63.2049 34.6069C63.2049 34.2439 63.096 33.9171 62.8419 33.6993C62.6241 33.4815 62.2611 33.3726 61.7891 33.3726H60.1554V35.8776H61.7165V35.8413Z" fill="#646363"/>
    <path d="M72.2448 33.3363H68.215V34.7885H71.8091V36.2769H68.215V37.9105H72.4263V39.4353H66.5088V31.8115H72.2448V33.3363Z" fill="#646363"/>
    <path d="M78.1622 34.607C78.3077 34.4618 78.3804 34.3166 78.3804 34.0624C78.3804 33.772 78.2709 33.5541 78.0895 33.4089C77.8721 33.2637 77.5453 33.1911 77.1098 33.1911C76.3834 33.1911 75.7298 33.4452 75.1129 33.9172L74.2052 32.7555C74.6409 32.3924 75.0761 32.1383 75.5844 31.9568C76.0934 31.7753 76.6016 31.7026 77.2185 31.7026C77.69 31.7026 78.0895 31.739 78.4531 31.8479C78.8159 31.9568 79.106 32.102 79.3601 32.2835C79.6142 32.4651 79.7956 32.6829 79.941 32.9733C80.0865 33.2275 80.1224 33.5179 80.1224 33.8446C80.1224 34.1714 80.0505 34.4618 79.941 34.7159C79.7956 34.9701 79.6142 35.1878 79.3601 35.3331V35.442C79.7237 35.5508 80.0137 35.7687 80.2319 36.0591C80.4493 36.3495 80.522 36.7126 80.522 37.1482C80.522 37.5113 80.4493 37.838 80.3046 38.1285C80.1592 38.4189 79.941 38.7093 79.6869 38.9271C79.3968 39.1449 79.07 39.3265 78.6345 39.4354C78.235 39.5806 77.7267 39.6169 77.1818 39.6169C76.8557 39.6169 76.5289 39.5806 76.238 39.5443C75.9479 39.508 75.6571 39.4354 75.403 39.3628C75.1489 39.2539 74.895 39.1449 74.6409 38.9997C74.3867 38.8545 74.1689 38.673 73.9148 38.4915L74.8223 37.2209C75.2216 37.5476 75.6211 37.7654 76.0206 37.8743C76.4194 38.0196 76.8557 38.0558 77.3272 38.0558C77.8354 38.0558 78.199 37.9469 78.4531 37.7654C78.7072 37.5839 78.8159 37.3298 78.8159 37.0393C78.8159 36.4948 78.4531 36.2406 77.7627 36.2406H75.8385V34.7522H77.5813C77.7994 34.7885 78.0168 34.7159 78.1622 34.607Z" fill="#646363"/>
    <path d="M83.8623 36.8941L87.5653 31.8115H89.0533V39.4353H87.3472V34.6432L83.8256 39.4353H82.1562V31.8115H83.8256V36.8941H83.8623Z" fill="#646363"/>
    <path d="M98.2023 37.9105H99.2915V38.3825L99.1461 41.069H97.6214L97.5487 39.4717H92.3937L92.285 41.069H90.7603L90.6509 38.4188V37.9469H90.9777C91.1231 37.9469 91.3045 37.8743 91.45 37.7653C91.5954 37.6564 91.74 37.475 91.8495 37.2208C92.0669 36.7488 92.2123 36.168 92.285 35.4419C92.3937 34.7158 92.4304 33.9171 92.4304 33.0459V31.8115H98.2023V37.9105ZM93.9184 36.0954C93.773 36.8577 93.6283 37.475 93.4101 37.9105H96.4962V33.3363H94.1365C94.0998 34.4254 94.0271 35.333 93.9184 36.0954Z" fill="#646363"/>
    <path d="M106.625 33.3363H102.595V34.7885H106.189V36.2769H102.595V37.9105H106.806V39.4353H100.925V31.8115H106.625V33.3363Z" fill="#646363"/>
    <path d="M110.364 34.7885H113.704V31.8115H115.41V39.4353H113.704V36.3858H110.364V39.4353H108.657V31.8115H110.364V34.7885Z" fill="#646363"/>
    <path d="M123.942 33.3726H121.328V39.4717H119.621V33.3726H117.007V31.8115H123.942V33.3726Z" fill="#646363"/>
    <path d="M130.367 33.4096C130.004 33.3007 129.641 33.228 129.205 33.228C128.843 33.228 128.48 33.3007 128.189 33.4096C127.899 33.5185 127.645 33.7 127.427 33.9178C127.209 34.1356 127.064 34.3898 126.918 34.6801C126.81 34.9706 126.737 35.2974 126.737 35.6604C126.737 36.0234 126.81 36.3502 126.918 36.6406C127.027 36.931 127.209 37.1852 127.427 37.403C127.645 37.6208 127.899 37.766 128.189 37.9112C128.48 38.0201 128.806 38.0928 129.169 38.0928C129.605 38.0928 130.004 38.0201 130.367 37.8749C130.73 37.7297 131.094 37.5119 131.384 37.2214L132.364 38.4195C131.492 39.2545 130.403 39.6538 129.097 39.6538C128.516 39.6538 127.972 39.5449 127.463 39.3634C126.955 39.1819 126.556 38.9277 126.192 38.5647C125.829 38.2017 125.575 37.8023 125.358 37.3303C125.176 36.8584 125.067 36.3138 125.067 35.6967C125.067 35.1522 125.176 34.6439 125.358 34.1356C125.539 33.6637 125.829 33.228 126.192 32.865C126.556 32.502 126.991 32.2115 127.499 31.9937C128.008 31.7759 128.588 31.667 129.242 31.667C129.823 31.667 130.367 31.7396 130.876 31.9211C131.384 32.1026 131.819 32.3568 132.183 32.7198L131.238 33.9541C131.021 33.7 130.694 33.5185 130.367 33.4096Z" fill="#646363"/>
    <path d="M135.632 34.7165L136.466 34.6076L138.608 31.7759H140.714L137.882 35.3336L141.004 39.3997H138.79L136.466 36.1323H135.632V39.3997H133.962V31.7759H135.632V34.7165Z" fill="#646363"/>
    <path d="M144.272 36.8941L147.975 31.8115H149.463V39.4353H147.757V34.6432L144.236 39.4353H142.565V31.8115H144.236V36.8941H144.272Z" fill="#646363"/>
    <path d="M154.945 34.5343H155.054L156.578 31.8115H158.684L156.252 35.5871L158.938 39.4717H156.724L155.018 36.5311H154.908L153.239 39.4717H151.024L153.71 35.5145L151.278 31.8478H153.42L154.945 34.5343Z" fill="#646363"/>
    <path d="M55.4725 47.0594H51.4065V53.1585H49.7002V45.5347H55.4725V47.0594Z" fill="#646363"/>
    <path d="M61.644 45.716C62.007 45.8613 62.3338 46.0428 62.6241 46.2606C62.8783 46.5147 63.0961 46.8052 63.2414 47.1319C63.3866 47.4586 63.4591 47.858 63.4591 48.2573C63.4591 48.693 63.3866 49.0923 63.205 49.419C63.0235 49.7821 62.8057 50.0725 62.5152 50.2904C62.2248 50.5445 61.8981 50.726 61.4988 50.8349C61.0994 50.9438 60.7001 51.0164 60.2281 51.0164H58.667V53.0857H56.9971V45.4619H60.4096C60.8453 45.4982 61.2809 45.5708 61.644 45.716ZM60.2644 49.528C60.7364 49.528 61.0631 49.419 61.3535 49.2012C61.6077 48.9834 61.7529 48.6567 61.7529 48.2936C61.7529 47.9306 61.644 47.6039 61.3899 47.3861C61.172 47.1682 60.809 47.0593 60.3371 47.0593H58.7034V49.5642H60.2644V49.528Z" fill="#646363"/>
    <path d="M72.1723 53.1576H70.2845L69.7036 51.6329H66.4363L65.8554 53.1576H64.0039L67.1261 45.4976H69.0138L72.1723 53.1576ZM69.1228 50.1081L68.1062 47.2038H67.9973L66.9808 50.1081H69.1228Z" fill="#646363"/>
    <path d="M75.4395 48.4744H78.779V45.4976H80.4858V53.1213H78.779V50.0355H75.4395V53.1213H73.6968V45.4976H75.4028V48.4744H75.4395Z" fill="#646363"/>
    <path d="M88.9813 47.0586H86.4034V53.1576H84.6973V47.0586H82.0835V45.4976H89.0173V47.0586H88.9813Z" fill="#646363"/>
    <path d="M95.8422 45.6434C96.3504 45.8613 96.7859 46.1154 97.1127 46.4784C97.4755 46.8414 97.7297 47.2408 97.9478 47.749C98.1292 48.221 98.2386 48.7656 98.2386 49.3464C98.2386 49.8909 98.1292 50.3992 97.9478 50.9075C97.7664 51.3794 97.4755 51.8151 97.1127 52.1781C96.7499 52.5411 96.3144 52.8315 95.8422 53.0494C95.3339 53.2672 94.7897 53.3761 94.2088 53.3761C93.6279 53.3761 93.0829 53.2672 92.5747 53.0857C92.0664 52.8679 91.6669 52.6138 91.3041 52.2507C90.9413 51.8876 90.6505 51.4883 90.469 50.9801C90.2876 50.5082 90.179 49.9636 90.179 49.419C90.179 48.8745 90.2876 48.3662 90.469 47.858C90.6505 47.386 90.9413 46.9503 91.3041 46.5873C91.6669 46.2243 92.1032 45.9338 92.5747 45.7523C93.0829 45.5345 93.6279 45.4256 94.2088 45.4256C94.7897 45.353 95.3339 45.4619 95.8422 45.6434ZM93.1923 47.0593C92.9015 47.2045 92.6474 47.3497 92.466 47.5675C92.2478 47.7853 92.1032 48.0394 91.9937 48.3299C91.885 48.6203 91.8491 48.947 91.8491 49.2738C91.8491 49.6005 91.885 49.9273 91.9937 50.254C92.1032 50.5444 92.2478 50.7986 92.466 51.0527C92.6841 51.2705 92.9015 51.4521 93.1923 51.561C93.4824 51.6699 93.8093 51.7424 94.1721 51.7424C94.5356 51.7424 94.8617 51.6699 95.1525 51.561C95.4426 51.4157 95.6967 51.2705 95.8789 51.0164C96.0963 50.7986 96.2417 50.5444 96.3504 50.2177C96.4591 49.9273 96.4958 49.6005 96.4958 49.2738C96.4958 48.9108 96.4591 48.584 96.3504 48.2936C96.2417 48.0032 96.0963 47.749 95.8789 47.4949C95.6608 47.2771 95.4426 47.0955 95.1525 46.9866C94.8617 46.8777 94.5356 46.8051 94.1721 46.8051C93.8093 46.8777 93.4824 46.9503 93.1923 47.0593Z" fill="#646363"/>
    <path d="M105.281 46.0794C105.753 46.4424 105.971 46.9506 105.971 47.6041C105.971 47.9308 105.898 48.2213 105.789 48.4754C105.644 48.7295 105.463 48.9111 105.245 49.02V49.1289C105.608 49.2378 105.898 49.4556 106.153 49.7823C106.37 50.1091 106.479 50.4721 106.479 50.8715C106.479 51.1982 106.407 51.4886 106.298 51.7427C106.189 52.0332 106.008 52.251 105.789 52.4688C105.572 52.6866 105.245 52.8318 104.918 52.9771C104.556 53.086 104.156 53.1586 103.648 53.1586H99.9448V45.5348H103.321C104.156 45.4985 104.846 45.68 105.281 46.0794ZM103.394 48.5117C103.684 48.5117 103.902 48.4391 104.083 48.2939C104.265 48.1486 104.337 47.9672 104.337 47.7131C104.337 47.2048 104.011 46.9506 103.357 46.9506H101.651V48.5117H103.394ZM103.648 51.6702C104.41 51.6702 104.773 51.3797 104.773 50.7626C104.773 50.4721 104.664 50.2543 104.483 50.1091C104.301 49.9639 104.011 49.8912 103.648 49.8912H101.651V51.6702H103.648Z" fill="#646363"/>
</svg>
