<svg width="49" height="66" viewBox="0 0 49 66" fill="none" xmlns="http://www.w3.org/2000/svg">
    <path fill-rule="evenodd" clip-rule="evenodd" d="M16.653 35.6744C16.0067 35.3437 15.3497 35.0076 14.6843 34.6535L15.7203 32.7068C16.3136 33.0225 16.9225 33.3334 17.5394 33.6483C20.0782 34.9444 22.7534 36.3101 25.0384 38.3718C27.9512 40.9999 30.227 44.7258 31.2484 50.8085L29.0737 51.1737C28.1251 45.5247 26.064 42.2674 23.5611 40.0091C21.5129 38.1611 19.1638 36.9591 16.653 35.6744Z" fill="#FB5A00"/>
    <path fill-rule="evenodd" clip-rule="evenodd" d="M39.0566 50.9685C35.4521 53.2471 31.3967 52.4274 30.0764 52.1436L30.5398 49.9876C31.8412 50.2673 35.0875 50.8687 37.8782 49.1045L39.0566 50.9685Z" fill="#FB5A00"/>
    <path fill-rule="evenodd" clip-rule="evenodd" d="M34.0959 53.2174C35.1583 51.2363 36.5235 49.8076 37.8295 49.1584L38.692 50.8936L39.5524 50.7164C40.0723 53.2416 40.8906 55.5378 41.5828 57.2079C41.9281 58.041 42.24 58.7135 42.4643 59.1753C42.5764 59.406 42.6664 59.5839 42.7276 59.7024C42.7582 59.7617 42.7815 59.8061 42.7968 59.835C42.8044 59.8494 42.8101 59.8599 42.8135 59.8664L42.8175 59.8737L42.8176 59.874L42.8177 59.8741L43.317 60.7931L42.425 61.3401C40.645 62.4316 38.66 62.7787 36.9498 62.7936C35.2423 62.8085 33.7279 62.4934 32.8141 62.1771L32.0386 61.9087L32.0732 61.0887C32.2085 57.8786 33.019 55.2254 34.0959 53.2174ZM40.3762 59.9215C40.1483 59.4437 39.8596 58.8097 39.5456 58.0523C38.9018 56.499 38.1458 54.4114 37.5947 52.076C37.0809 52.6054 36.5383 53.3291 36.0393 54.2596C35.2186 55.7899 34.5485 57.8226 34.3321 60.315C35.0236 60.471 35.9327 60.5972 36.9306 60.5885C38.066 60.5786 39.2666 60.3948 40.3762 59.9215Z" fill="#FB5A00"/>
    <path fill-rule="evenodd" clip-rule="evenodd" d="M13.2823 47.016C15.2084 41.8842 18.0149 38.8395 19.9889 36.2791L21.7353 37.6255C19.8746 40.039 17.2151 44.2791 15.3771 49.1762C14.1192 52.5277 13.2697 56.1231 13.2822 59.6212C13.3556 59.4791 13.432 59.3386 13.5116 59.2C14.5186 57.445 16.1169 55.8579 18.5533 55.628L19.4532 55.5431L19.713 56.4089C20.0548 57.5484 20.3997 58.4875 21.0766 59.7622C21.0048 57.7859 21.0657 55.6173 21.3635 53.5004C21.93 49.4739 23.4041 45.2935 26.8397 43.2456L27.9688 45.1399C25.4356 46.6498 24.0919 49.9364 23.5472 53.8077C23.0111 57.6184 23.2983 61.6671 23.7146 64.2305L21.7057 65.0141C19.4344 61.5688 18.5572 59.8959 17.9088 58.0061C16.8722 58.3637 16.0652 59.1806 15.4243 60.2975C14.6116 61.7137 14.16 63.4679 13.9308 64.8781L11.7791 64.9927C10.2657 59.4696 11.3618 52.1328 13.2823 47.016Z" fill="#FB5A00"/>
    <path d="M16.7956 43.7725L20.8858 36.7207L28.0083 43.7725L23.0014 48.9204L21.8026 59.7098L20.8858 61.1202L18.3471 56.8891H16.7956L12.3529 61.7549V54.2799L16.7956 43.7725Z" fill="#FB5A00"/>
    <path fill-rule="evenodd" clip-rule="evenodd" d="M29.5457 31.0319C27.8406 31.0319 26.4584 32.4141 26.4584 34.1192C26.4584 35.8243 27.8406 37.2065 29.5457 37.2065C31.2508 37.2065 32.633 35.8243 32.633 34.1192C32.633 32.4141 31.2508 31.0319 29.5457 31.0319ZM24.2532 34.1192C24.2532 31.1962 26.6227 28.8267 29.5457 28.8267C32.4687 28.8267 34.8382 31.1962 34.8382 34.1192C34.8382 37.0422 32.4687 39.4117 29.5457 39.4117C26.6227 39.4117 24.2532 37.0422 24.2532 34.1192Z" fill="#FB5A00"/>
    <path fill-rule="evenodd" clip-rule="evenodd" d="M14.8276 9.53359C12.067 9.53359 9.82906 11.7715 9.82906 14.5321C9.82906 17.2927 12.067 19.5306 14.8276 19.5306C17.5882 19.5306 19.8261 17.2927 19.8261 14.5321C19.8261 11.7715 17.5882 9.53359 14.8276 9.53359ZM7.62384 14.5321C7.62384 10.5536 10.8491 7.32837 14.8276 7.32837C18.8061 7.32837 22.0313 10.5536 22.0313 14.5321C22.0313 18.5106 18.8061 21.7358 14.8276 21.7358C10.8491 21.7358 7.62384 18.5106 7.62384 14.5321Z" fill="#FB5A00"/>
    <path fill-rule="evenodd" clip-rule="evenodd" d="M37.407 41.6154C36.1485 41.6154 35.1283 42.6356 35.1283 43.8941C35.1283 45.1526 36.1485 46.1728 37.407 46.1728C38.6656 46.1728 39.6858 45.1526 39.6858 43.8941C39.6858 42.6356 38.6656 41.6154 37.407 41.6154ZM32.9231 43.8941C32.9231 41.4177 34.9306 39.4102 37.407 39.4102C39.8835 39.4102 41.891 41.4177 41.891 43.8941C41.891 46.3705 39.8835 48.3781 37.407 48.3781C34.9306 48.3781 32.9231 46.3705 32.9231 43.8941Z" fill="#FB5A00"/>
    <path fill-rule="evenodd" clip-rule="evenodd" d="M42.0915 42.727C41.9153 42.7081 41.5547 42.7449 40.9648 43.0853L39.8628 41.1752C40.7062 40.6886 41.5383 40.4498 42.3266 40.5343C43.144 40.6219 43.7763 41.0432 44.1996 41.6037C44.9864 42.6454 45.0664 44.1521 44.677 45.2549C44.5167 45.7089 44.6568 46.1059 45.0441 46.4258C45.4709 46.7783 46.0593 46.9018 46.4898 46.7716L47.128 48.8825C45.8964 49.2548 44.5553 48.8822 43.6398 48.1261C42.6851 47.3375 42.0704 46.0136 42.5976 44.5207C42.7925 43.9686 42.6942 43.2694 42.4399 42.9327C42.3425 42.8039 42.2385 42.7427 42.0915 42.727Z" fill="#FB5A00"/>
    <path fill-rule="evenodd" clip-rule="evenodd" d="M38.3114 52.546C37.3417 51.8355 36.575 50.9876 36.1473 50.3959L37.9344 49.104C38.2418 49.5292 38.8497 50.2066 39.6148 50.7671C40.3915 51.3363 41.2104 51.6979 41.9658 51.6979V53.9031C40.5455 53.9031 39.2694 53.2479 38.3114 52.546Z" fill="#FB5A00"/>
    <path fill-rule="evenodd" clip-rule="evenodd" d="M34.3836 63.2586C34.2667 62.6761 34.1985 62.122 34.1708 61.7752L36.369 61.5994C36.3902 61.8651 36.447 62.3328 36.5457 62.8247C36.648 63.3342 36.7784 63.7825 36.9176 64.061L34.9452 65.0472C34.6728 64.5024 34.497 63.8236 34.3836 63.2586Z" fill="#FB5A00"/>
    <path fill-rule="evenodd" clip-rule="evenodd" d="M38.2901 62.0446C38.264 61.6608 38.3238 61.1437 38.6988 60.7095L40.3678 62.1508C40.4834 62.017 40.4895 61.8954 40.4898 61.884C40.4898 61.8855 40.4899 61.8891 40.4902 61.8949C40.494 61.9503 40.52 62.0811 40.608 62.2976C40.7818 62.7251 41.1007 63.2555 41.4645 63.7733L39.6603 65.0411C39.2596 64.471 38.8312 63.7824 38.5652 63.1281C38.4333 62.8037 38.3162 62.4279 38.2901 62.0446ZM40.4898 61.8831C40.4898 61.8831 40.4898 61.8834 40.4898 61.884C40.4897 61.8834 40.4898 61.8831 40.4898 61.8831Z" fill="#FB5A00"/>
    <path fill-rule="evenodd" clip-rule="evenodd" d="M18.4256 23.1282C18.5925 24.4863 18.3519 26.0777 17.1871 27.5237C15.6281 29.459 15.8909 32.0914 16.2387 33.1546L14.1427 33.8402C13.6758 32.4127 13.2532 28.892 15.4697 26.1403C16.1927 25.2428 16.3453 24.2799 16.2369 23.3971C16.1247 22.4841 15.7333 21.6931 15.4344 21.279L17.2224 19.9883C17.71 20.6638 18.2625 21.8002 18.4256 23.1282Z" fill="#FB5A00"/>
    <path fill-rule="evenodd" clip-rule="evenodd" d="M24.7081 4.86957C23.895 5.45305 22.2356 7.14909 21.4655 7.97709L19.8507 6.47526C20.586 5.68471 22.3969 3.8138 23.4225 3.07789L24.7081 4.86957Z" fill="#FB5A00"/>
    <path fill-rule="evenodd" clip-rule="evenodd" d="M3.84376 22.7977C4.65688 22.2142 6.3163 20.5181 7.0864 19.6901L8.70117 21.192C7.96591 21.9825 6.15496 23.8534 5.1294 24.5893L3.84376 22.7977Z" fill="#FB5A00"/>
    <path fill-rule="evenodd" clip-rule="evenodd" d="M28.3372 17.3868C27.3929 17.0552 25.0519 16.6683 23.9319 16.5123L24.2363 14.3281C25.3056 14.4772 27.8768 14.8879 29.0678 15.3061L28.3372 17.3868Z" fill="#FB5A00"/>
    <path fill-rule="evenodd" clip-rule="evenodd" d="M1.39105 10.0603C2.33534 10.3918 4.6764 10.7787 5.79634 10.9348L5.49197 13.1189C4.42268 12.9699 1.85146 12.5591 0.66048 12.1409L1.39105 10.0603Z" fill="#FB5A00"/>
    <path fill-rule="evenodd" clip-rule="evenodd" d="M11.9579 1.01142C12.0398 2.00887 12.6402 4.30445 12.954 5.39082L10.8353 6.00267C10.5358 4.96543 9.86337 2.44993 9.76006 1.1919L11.9579 1.01142Z" fill="#FB5A00"/>
    <path fill-rule="evenodd" clip-rule="evenodd" d="M21.5884 40.9049C22.0046 40.8357 22.4108 40.946 22.7795 41.1439C23.1465 41.3409 23.4545 41.6096 23.6401 41.9695C23.8297 42.3372 23.8531 42.7262 23.7776 43.0864C23.6367 43.758 23.1435 44.3829 22.6127 44.8958C22.2294 45.2661 21.7727 45.6286 21.2838 45.964C21.3257 46.9287 21.4421 47.9241 21.5992 48.7694L20.1538 49.038C20.0293 48.3678 19.9267 47.6013 19.8639 46.8166C19.3945 47.0618 18.9304 47.2691 18.5031 47.424L18.0021 46.0418C18.5555 45.8413 19.1871 45.5341 19.7969 45.1707C19.7981 44.6369 19.8243 44.1207 19.8815 43.6478C19.9771 42.8576 20.1738 42.0451 20.6043 41.5069C20.8368 41.2161 21.1624 40.9757 21.5884 40.9049ZM21.3128 44.0926C21.4103 44.0082 21.5034 43.9234 21.5912 43.8385C22.0693 43.3766 22.2916 43.0093 22.3387 42.7846C22.3572 42.6967 22.3428 42.6615 22.3334 42.6432C22.3199 42.6171 22.2678 42.5378 22.0842 42.4393C21.9944 42.3911 21.9298 42.3696 21.8884 42.3606C21.8488 42.3519 21.8314 42.3548 21.8296 42.3551C21.8295 42.3551 21.8294 42.3551 21.8293 42.3551C21.8283 42.3553 21.8257 42.3556 21.8181 42.3605C21.8079 42.367 21.7848 42.3846 21.7524 42.4251C21.5943 42.6228 21.4313 43.0782 21.341 43.8244C21.3304 43.9118 21.3211 44.0013 21.3128 44.0926Z" fill="#FB5A00"/>
    <path d="M33.8002 57.3786L37.4963 50.3467L41.1926 60.2633L38.9388 62.2467L33.8002 61.0747V57.3786Z" fill="#FB5A00"/>
    <circle cx="36.8374" cy="44.1163" r="3.03722" fill="#FB5A00"/>
    <circle cx="29.7284" cy="33.7138" r="3.55343" fill="#FB5A00"/>
    <circle cx="14.6956" cy="14.3533" r="5.48513" fill="#FB5A00"/>
</svg>
