<svg>
    <svg width="31" height="18" viewBox="0 0 31 18" fill="none" xmlns="http://www.w3.org/2000/svg">
        <path d="M30.8193 16.2763C30.7818 16.1954 30.7468 16.1283 30.7143 16.0746C30.1767 15.1064 29.1495 13.9181 27.6331 12.5092L27.6011 12.4769L27.585 12.4611L27.5688 12.4449H27.5525C26.8643 11.7888 26.4285 11.3477 26.246 11.1219C25.9121 10.6917 25.8373 10.2562 26.0198 9.81498C26.1487 9.48161 26.6331 8.77759 27.4717 7.70196C27.9128 7.1319 28.2622 6.67503 28.5201 6.33081C30.3808 3.85714 31.1875 2.27643 30.94 1.58806L30.8439 1.4272C30.7793 1.33035 30.6127 1.24176 30.3441 1.16096C30.0749 1.08033 29.7309 1.067 29.3114 1.12073L24.6655 1.15282C24.5902 1.12615 24.4828 1.12864 24.3428 1.16096C24.2029 1.19328 24.133 1.20949 24.133 1.20949L24.0521 1.24989L23.9879 1.29843C23.9341 1.33052 23.875 1.38697 23.8104 1.46765C23.7461 1.54806 23.6924 1.64242 23.6495 1.74994C23.1437 3.05125 22.5686 4.26113 21.9232 5.37954C21.5252 6.04644 21.1598 6.6244 20.826 7.11377C20.4927 7.60297 20.2131 7.96339 19.9874 8.19443C19.7614 8.4257 19.5574 8.61097 19.3742 8.75092C19.1913 8.89094 19.0517 8.9501 18.955 8.92845C18.8581 8.90681 18.7669 8.88534 18.6805 8.86387C18.53 8.76703 18.409 8.63532 18.3177 8.46864C18.2261 8.30196 18.1644 8.09216 18.1321 7.83943C18.1 7.58652 18.081 7.36899 18.0756 7.18609C18.0706 7.00342 18.0729 6.74503 18.0838 6.41167C18.095 6.07814 18.1 5.85247 18.1 5.73415C18.1 5.32541 18.108 4.88181 18.124 4.40324C18.1403 3.92466 18.1534 3.54547 18.1644 3.26612C18.1754 2.98649 18.1805 2.69065 18.1805 2.37876C18.1805 2.06686 18.1615 1.82226 18.124 1.64473C18.0869 1.46743 18.03 1.29532 17.955 1.12847C17.8796 0.961788 17.7692 0.83285 17.6243 0.741316C17.4792 0.649895 17.2987 0.577346 17.084 0.523443C16.5139 0.394448 15.788 0.324667 14.906 0.313819C12.9057 0.292348 11.6205 0.421512 11.0505 0.701142C10.8246 0.819289 10.6202 0.980716 10.4375 1.18492C10.2439 1.4216 10.2169 1.55077 10.3567 1.57201C11.002 1.66869 11.4589 1.89995 11.7278 2.26558L11.8247 2.45933C11.9001 2.59911 11.9753 2.84659 12.0507 3.20143C12.1259 3.55626 12.1744 3.94879 12.1958 4.37877C12.2494 5.16398 12.2494 5.83614 12.1958 6.39528C12.1419 6.95466 12.0911 7.39012 12.0425 7.70201C11.994 8.01391 11.9214 8.26664 11.8247 8.46016C11.7278 8.65374 11.6633 8.77206 11.631 8.815C11.5988 8.85794 11.5719 8.885 11.5505 8.89563C11.4107 8.94919 11.2653 8.97648 11.1149 8.97648C10.9642 8.97648 10.7814 8.90111 10.5664 8.75047C10.3514 8.59984 10.1283 8.39293 9.89702 8.1294C9.66575 7.86581 9.40494 7.49748 9.11446 7.02432C8.82421 6.55117 8.52305 5.99197 8.21115 5.34671L7.95311 4.87876C7.79179 4.57771 7.57143 4.13937 7.2918 3.56412C7.012 2.98864 6.76469 2.43198 6.5497 1.89425C6.46376 1.66841 6.33465 1.49647 6.1626 1.37815L6.08186 1.32962C6.02818 1.28668 5.94202 1.24108 5.82381 1.19249C5.70544 1.14395 5.58193 1.10915 5.45276 1.08773L1.03264 1.11983C0.580958 1.11983 0.274489 1.22215 0.113118 1.42652L0.0485356 1.5232C0.0162727 1.57704 0 1.66304 0 1.78141C0 1.89973 0.0322629 2.04494 0.0968451 2.21688C0.742102 3.7334 1.44381 5.19596 2.20195 6.60479C2.9601 8.01363 3.61892 9.14847 4.17801 10.0083C4.73722 10.8688 5.30721 11.6809 5.888 12.4443C6.46879 13.2079 6.85323 13.6973 7.04133 13.9122C7.22965 14.1276 7.37757 14.2887 7.4851 14.3962L7.88847 14.7833C8.14657 15.0414 8.52559 15.3506 9.02569 15.7108C9.52591 16.0713 10.0797 16.4261 10.6873 16.7759C11.2951 17.1251 12.0021 17.4101 12.8088 17.6306C13.6153 17.8512 14.4004 17.9397 15.164 17.897H17.0192C17.3954 17.8645 17.6805 17.7462 17.8743 17.542L17.9384 17.4612C17.9816 17.397 18.022 17.2973 18.0593 17.1631C18.097 17.0286 18.1158 16.8805 18.1158 16.7195C18.1048 16.2571 18.14 15.8404 18.2204 15.4694C18.3008 15.0985 18.3925 14.8189 18.495 14.6306C18.5974 14.4424 18.713 14.2836 18.8417 14.1549C18.9706 14.0259 19.0625 13.9478 19.1164 13.9209C19.17 13.8938 19.2127 13.8755 19.245 13.8644C19.5031 13.7785 19.8069 13.8617 20.1567 14.1147C20.5063 14.3674 20.8342 14.6795 21.1409 15.0504C21.4474 15.4216 21.8157 15.8381 22.2458 16.3004C22.6762 16.763 23.0525 17.1068 23.375 17.333L23.6975 17.5265C23.9129 17.6557 24.1925 17.774 24.5367 17.8815C24.8803 17.989 25.1814 18.0159 25.4399 17.9622L29.5695 17.8978C29.9779 17.8978 30.2957 17.8301 30.5212 17.6959C30.7471 17.5615 30.8813 17.4134 30.9246 17.2523C30.9677 17.0911 30.97 16.9081 30.9327 16.7036C30.8945 16.4995 30.8568 16.3569 30.8193 16.2763Z" fill="white"/>
    </svg>

</svg>